<?xml version="1.0" encoding="UTF-8"?>
<!DOCTYPE svg PUBLIC "-//W3C//DTD SVG 1.1//EN" "http://www.w3.org/Graphics/SVG/1.1/DTD/svg11.dtd">
<svg xmlns="http://www.w3.org/2000/svg" version="1.1" width="354px" height="311px" style="shape-rendering:geometricPrecision; text-rendering:geometricPrecision; image-rendering:optimizeQuality; fill-rule:evenodd; clip-rule:evenodd" xmlns:xlink="http://www.w3.org/1999/xlink">
<g><path style="opacity:1" fill="#fefefe" d="M -0.5,-0.5 C 117.5,-0.5 235.5,-0.5 353.5,-0.5C 353.5,103.167 353.5,206.833 353.5,310.5C 235.5,310.5 117.5,310.5 -0.5,310.5C -0.5,206.833 -0.5,103.167 -0.5,-0.5 Z"/></g>
<g><path style="opacity:1" fill="#3b3b3b" d="M 255.5,1.5 C 255.427,3.02694 256.094,4.02694 257.5,4.5C 257.66,6.15298 258.326,7.48631 259.5,8.5C 260.488,11.8174 261.488,15.1508 262.5,18.5C 262.517,20.5648 262.85,22.5648 263.5,24.5C 263.41,27.1522 264.076,29.4855 265.5,31.5C 265.528,34.9164 266.528,37.9164 268.5,40.5C 269.405,45.6533 270.905,50.6533 273,55.5C 274.05,60.4482 274.55,65.4482 274.5,70.5C 273.833,70.5 273.5,70.8333 273.5,71.5C 272.833,71.8333 272.167,72.1667 271.5,72.5C 271.167,71.5 270.5,70.8333 269.5,70.5C 269.673,64.066 269.006,57.7326 267.5,51.5C 267.245,49.0326 266.245,47.0326 264.5,45.5C 264.5,45.1667 264.5,44.8333 264.5,44.5C 264.818,41.5185 263.818,39.1852 261.5,37.5C 260.165,31.4954 258.832,25.4954 257.5,19.5C 257.741,17.1016 257.074,15.1016 255.5,13.5C 255.5,13.1667 255.5,12.8333 255.5,12.5C 255.38,11.4138 254.713,10.7472 253.5,10.5C 252.287,10.7472 251.62,11.4138 251.5,12.5C 251.167,13.1667 250.833,13.8333 250.5,14.5C 249.094,14.9731 248.427,15.9731 248.5,17.5C 247.094,17.9731 246.427,18.9731 246.5,20.5C 246.5,21.1667 246.5,21.8333 246.5,22.5C 244.554,23.0347 243.554,24.368 243.5,26.5C 241.75,27.6594 240.75,29.326 240.5,31.5C 239.094,31.9731 238.427,32.9731 238.5,34.5C 238.5,35.1667 238.5,35.8333 238.5,36.5C 235.677,37.9923 234.01,40.3257 233.5,43.5C 231.025,46.2509 230.025,49.5842 230.5,53.5C 228.312,54.6227 225.979,54.6227 223.5,53.5C 220.916,51.5275 217.916,50.5275 214.5,50.5C 213.833,50.5 213.167,50.5 212.5,50.5C 204.344,49.3434 196.01,49.1768 187.5,50C 186.263,50.2321 185.263,50.7321 184.5,51.5C 183.209,51.2627 182.209,51.596 181.5,52.5C 170.958,52.2636 160.624,52.9302 150.5,54.5C 147.99,54.9267 145.657,55.5933 143.5,56.5C 140.193,57.0508 136.86,57.3841 133.5,57.5C 133.5,56.8333 133.5,56.1667 133.5,55.5C 134.209,54.596 135.209,54.2627 136.5,54.5C 138.403,54.2041 140.07,53.5375 141.5,52.5C 142.833,52.5 144.167,52.5 145.5,52.5C 148.152,52.5905 150.485,51.9238 152.5,50.5C 159.072,50.761 165.406,50.0943 171.5,48.5C 174.833,47.8333 178.167,47.1667 181.5,46.5C 195.907,44.8778 210.24,45.2112 224.5,47.5C 225.568,48.4345 226.901,48.7678 228.5,48.5C 228.517,46.4352 228.85,44.4352 229.5,42.5C 229.5,41.8333 229.5,41.1667 229.5,40.5C 230.906,40.0269 231.573,39.0269 231.5,37.5C 232.167,36.1667 232.833,34.8333 233.5,33.5C 235.245,31.9674 236.245,29.9674 236.5,27.5C 237.338,27.1583 237.672,26.4916 237.5,25.5C 239.408,24.5144 240.408,22.8477 240.5,20.5C 241.376,20.6309 242.043,20.2975 242.5,19.5C 243.32,17.0262 244.32,14.6929 245.5,12.5C 247.262,11.7377 248.262,10.4044 248.5,8.5C 248.5,7.83333 248.5,7.16667 248.5,6.5C 249.933,5.16668 251.267,3.66668 252.5,2C 253.448,1.51722 254.448,1.35055 255.5,1.5 Z"/></g>
<g><path style="opacity:1" fill="#868686" d="M 255.5,1.5 C 256.906,1.97306 257.573,2.97306 257.5,4.5C 256.094,4.02694 255.427,3.02694 255.5,1.5 Z"/></g>
<g><path style="opacity:1" fill="#9f9f9f" d="M 255.5,1.5 C 254.448,1.35055 253.448,1.51722 252.5,2C 251.267,3.66668 249.933,5.16668 248.5,6.5C 249.122,1.82315 251.456,0.156481 255.5,1.5 Z"/></g>
<g><path style="opacity:1" fill="#717171" d="M 248.5,8.5 C 248.262,10.4044 247.262,11.7377 245.5,12.5C 245.738,10.5956 246.738,9.26231 248.5,8.5 Z"/></g>
<g><path style="opacity:1" fill="#828282" d="M 255.5,12.5 C 254.167,11.1667 252.833,11.1667 251.5,12.5C 251.62,11.4138 252.287,10.7472 253.5,10.5C 254.713,10.7472 255.38,11.4138 255.5,12.5 Z"/></g>
<g><path style="opacity:1" fill="#bbbbbb" d="M 259.5,8.5 C 262.181,11.1918 263.514,14.5252 263.5,18.5C 263.167,18.5 262.833,18.5 262.5,18.5C 261.488,15.1508 260.488,11.8174 259.5,8.5 Z"/></g>
<g><path style="opacity:1" fill="#9e9e9e" d="M 102.5,16.5 C 100.61,16.2965 99.1096,16.9632 98,18.5C 96.7338,22.3951 96.2338,26.3951 96.5,30.5C 96.1667,30.5 95.8333,30.5 95.5,30.5C 95.3347,26.8183 95.5014,23.1516 96,19.5C 97.2083,15.8477 99.375,14.8477 102.5,16.5 Z"/></g>
<g><path style="opacity:1" fill="#949494" d="M 250.5,14.5 C 250.573,16.0269 249.906,17.0269 248.5,17.5C 248.427,15.9731 249.094,14.9731 250.5,14.5 Z"/></g>
<g><path style="opacity:1" fill="#797979" d="M 245.5,12.5 C 244.32,14.6929 243.32,17.0262 242.5,19.5C 242.043,20.2975 241.376,20.6309 240.5,20.5C 241.169,17.1511 242.836,14.4844 245.5,12.5 Z"/></g>
<g><path style="opacity:1" fill="#393939" d="M 102.5,16.5 C 105.637,19.2985 107.971,22.6319 109.5,26.5C 111.766,30.4356 114.766,33.7689 118.5,36.5C 119.08,38.7488 120.413,40.4154 122.5,41.5C 123.338,41.8417 123.672,42.5084 123.5,43.5C 123.427,45.0269 124.094,46.0269 125.5,46.5C 126.338,46.8417 126.672,47.5084 126.5,48.5C 126.738,50.4044 127.738,51.7377 129.5,52.5C 130.404,53.209 130.737,54.209 130.5,55.5C 132.129,57.1959 131.796,58.1959 129.5,58.5C 128.5,57.8333 127.5,57.1667 126.5,56.5C 125.92,54.2512 124.587,52.5846 122.5,51.5C 122.672,50.5084 122.338,49.8417 121.5,49.5C 121.573,47.9731 120.906,46.9731 119.5,46.5C 118.92,44.2512 117.587,42.5846 115.5,41.5C 115.262,39.5956 114.262,38.2623 112.5,37.5C 111.5,35.8333 110.167,34.5 108.5,33.5C 107.585,31.2459 106.252,29.2459 104.5,27.5C 104.332,24.9486 103.332,24.2819 101.5,25.5C 100.833,27.5 100.167,29.5 99.5,31.5C 99.8134,28.7531 99.48,26.0865 98.5,23.5C 97.8319,25.9688 97.1653,28.3021 96.5,30.5C 96.2338,26.3951 96.7338,22.3951 98,18.5C 99.1096,16.9632 100.61,16.2965 102.5,16.5 Z"/></g>
<g><path style="opacity:1" fill="#9b9b9b" d="M 255.5,13.5 C 257.074,15.1016 257.741,17.1016 257.5,19.5C 255.926,17.8984 255.259,15.8984 255.5,13.5 Z"/></g>
<g><path style="opacity:1" fill="#858585" d="M 248.5,17.5 C 248.573,19.0269 247.906,20.0269 246.5,20.5C 246.427,18.9731 247.094,17.9731 248.5,17.5 Z"/></g>
<g><path style="opacity:1" fill="#9a9a9a" d="M 262.5,18.5 C 262.833,18.5 263.167,18.5 263.5,18.5C 264.15,20.4352 264.483,22.4352 264.5,24.5C 264.167,24.5 263.833,24.5 263.5,24.5C 262.85,22.5648 262.517,20.5648 262.5,18.5 Z"/></g>
<g><path style="opacity:1" fill="#737373" d="M 101.5,25.5 C 103.332,24.2819 104.332,24.9486 104.5,27.5C 103.5,26.8333 102.5,26.1667 101.5,25.5 Z"/></g>
<g><path style="opacity:1" fill="#8c8c8c" d="M 240.5,20.5 C 240.408,22.8477 239.408,24.5144 237.5,25.5C 237.75,23.326 238.75,21.6594 240.5,20.5 Z"/></g>
<g><path style="opacity:1" fill="#bcbcbc" d="M 246.5,22.5 C 246.446,24.632 245.446,25.9653 243.5,26.5C 243.554,24.368 244.554,23.0347 246.5,22.5 Z"/></g>
<g><path style="opacity:1" fill="#686868" d="M 109.5,26.5 C 113.234,29.2311 116.234,32.5644 118.5,36.5C 114.766,33.7689 111.766,30.4356 109.5,26.5 Z"/></g>
<g><path style="opacity:1" fill="#626262" d="M 263.5,24.5 C 263.833,24.5 264.167,24.5 264.5,24.5C 264.993,26.8056 265.326,29.139 265.5,31.5C 264.076,29.4855 263.41,27.1522 263.5,24.5 Z"/></g>
<g><path style="opacity:1" fill="#cacaca" d="M 101.5,25.5 C 102.5,26.1667 103.5,26.8333 104.5,27.5C 106.252,29.2459 107.585,31.2459 108.5,33.5C 106.537,32.0401 104.704,30.3734 103,28.5C 102.722,29.4158 102.222,30.0825 101.5,30.5C 101.5,28.8333 101.5,27.1667 101.5,25.5 Z"/></g>
<g><path style="opacity:1" fill="#b0b0b0" d="M 243.5,26.5 C 243.408,28.8477 242.408,30.5144 240.5,31.5C 240.75,29.326 241.75,27.6594 243.5,26.5 Z"/></g>
<g><path style="opacity:1" fill="#cecece" d="M 264.5,24.5 C 266.41,27.4525 267.41,30.7858 267.5,34.5C 266.833,33.5 266.167,32.5 265.5,31.5C 265.326,29.139 264.993,26.8056 264.5,24.5 Z"/></g>
<g><path style="opacity:1" fill="#959595" d="M 236.5,27.5 C 236.245,29.9674 235.245,31.9674 233.5,33.5C 233.755,31.0326 234.755,29.0326 236.5,27.5 Z"/></g>
<g><path style="opacity:1" fill="#808080" d="M 240.5,31.5 C 240.573,33.0269 239.906,34.0269 238.5,34.5C 238.427,32.9731 239.094,31.9731 240.5,31.5 Z"/></g>
<g><path style="opacity:1" fill="#666666" d="M 265.5,31.5 C 266.167,32.5 266.833,33.5 267.5,34.5C 267.833,35.8333 268.167,37.1667 268.5,38.5C 268.5,39.1667 268.5,39.8333 268.5,40.5C 266.528,37.9164 265.528,34.9164 265.5,31.5 Z"/></g>
<g><path style="opacity:1" fill="#686868" d="M 118.5,36.5 C 120.587,37.5846 121.92,39.2512 122.5,41.5C 120.413,40.4154 119.08,38.7488 118.5,36.5 Z"/></g>
<g><path style="opacity:1" fill="#949494" d="M 101.5,25.5 C 101.5,27.1667 101.5,28.8333 101.5,30.5C 101.037,33.4824 100.704,36.4824 100.5,39.5C 100.167,39.5 99.8333,39.5 99.5,39.5C 99.5,36.8333 99.5,34.1667 99.5,31.5C 100.167,29.5 100.833,27.5 101.5,25.5 Z"/></g>
<g><path style="opacity:1" fill="#a9a9a9" d="M 112.5,37.5 C 114.262,38.2623 115.262,39.5956 115.5,41.5C 113.738,40.7377 112.738,39.4044 112.5,37.5 Z"/></g>
<g><path style="opacity:1" fill="#373737" d="M 99.5,31.5 C 99.5,34.1667 99.5,36.8333 99.5,39.5C 97.183,52.6827 96.183,66.016 96.5,79.5C 96.5,80.1667 96.1667,80.5 95.5,80.5C 94.5,80.5 93.5,80.5 92.5,80.5C 92.5,74.5 92.5,68.5 92.5,62.5C 93.5768,56.2177 94.2435,49.8844 94.5,43.5C 95.1621,39.5341 95.4955,35.5341 95.5,31.5C 95.5,31.1667 95.5,30.8333 95.5,30.5C 95.8333,30.5 96.1667,30.5 96.5,30.5C 97.1653,28.3021 97.8319,25.9688 98.5,23.5C 99.48,26.0865 99.8134,28.7531 99.5,31.5 Z"/></g>
<g><path style="opacity:1" fill="#acacac" d="M 231.5,37.5 C 231.573,39.0269 230.906,40.0269 229.5,40.5C 229.427,38.9731 230.094,37.9731 231.5,37.5 Z"/></g>
<g><path style="opacity:1" fill="#a5a5a5" d="M 238.5,36.5 C 237.148,39.1651 235.482,41.4984 233.5,43.5C 234.01,40.3257 235.677,37.9923 238.5,36.5 Z"/></g>
<g><path style="opacity:1" fill="#c1c1c1" d="M 268.5,38.5 C 270.213,39.6354 270.88,41.302 270.5,43.5C 269.833,42.5 269.167,41.5 268.5,40.5C 268.5,39.8333 268.5,39.1667 268.5,38.5 Z"/></g>
<g><path style="opacity:1" fill="#bdbdbd" d="M 261.5,37.5 C 263.818,39.1852 264.818,41.5185 264.5,44.5C 262.166,42.8243 261.166,40.491 261.5,37.5 Z"/></g>
<g><path style="opacity:1" fill="#717171" d="M 268.5,40.5 C 269.167,41.5 269.833,42.5 270.5,43.5C 271.697,47.9223 273.197,52.2556 275,56.5C 275.499,61.1548 275.666,65.8215 275.5,70.5C 275.167,70.5 274.833,70.5 274.5,70.5C 274.55,65.4482 274.05,60.4482 273,55.5C 270.905,50.6533 269.405,45.6533 268.5,40.5 Z"/></g>
<g><path style="opacity:1" fill="#9c9c9c" d="M 229.5,42.5 C 228.85,44.4352 228.517,46.4352 228.5,48.5C 226.901,48.7678 225.568,48.4345 224.5,47.5C 225.5,47.5 226.5,47.5 227.5,47.5C 227.12,45.302 227.787,43.6354 229.5,42.5 Z"/></g>
<g><path style="opacity:1" fill="#acacac" d="M 115.5,41.5 C 117.587,42.5846 118.92,44.2512 119.5,46.5C 117.413,45.4154 116.08,43.7488 115.5,41.5 Z"/></g>
<g><path style="opacity:1" fill="#717171" d="M 123.5,43.5 C 124.906,43.9731 125.573,44.9731 125.5,46.5C 124.094,46.0269 123.427,45.0269 123.5,43.5 Z"/></g>
<g><path style="opacity:1" fill="#aeaeae" d="M 95.5,31.5 C 95.4955,35.5341 95.1621,39.5341 94.5,43.5C 93.8333,45.1667 93.1667,46.8333 92.5,48.5C 92.3671,42.5109 93.3671,36.8443 95.5,31.5 Z"/></g>
<g><path style="opacity:1" fill="#e0e0e0" d="M 181.5,46.5 C 178.167,47.1667 174.833,47.8333 171.5,48.5C 168.833,48.5 166.167,48.5 163.5,48.5C 169.25,46.8502 175.25,46.1836 181.5,46.5 Z"/></g>
<g><path style="opacity:1" fill="#767676" d="M 264.5,45.5 C 266.245,47.0326 267.245,49.0326 267.5,51.5C 265.755,49.9674 264.755,47.9674 264.5,45.5 Z"/></g>
<g><path style="opacity:1" fill="#9f9f9f" d="M 119.5,46.5 C 120.906,46.9731 121.573,47.9731 121.5,49.5C 120.094,49.0269 119.427,48.0269 119.5,46.5 Z"/></g>
<g><path style="opacity:1" fill="#9a9a9a" d="M 233.5,43.5 C 232.962,45.1172 232.629,46.7839 232.5,48.5C 231.833,50.1667 231.167,51.8333 230.5,53.5C 230.025,49.5842 231.025,46.2509 233.5,43.5 Z"/></g>
<g><path style="opacity:1" fill="#939393" d="M 163.5,48.5 C 166.167,48.5 168.833,48.5 171.5,48.5C 165.406,50.0943 159.072,50.761 152.5,50.5C 151.833,50.5 151.167,50.5 150.5,50.5C 154.693,49.7173 159.027,49.0506 163.5,48.5 Z"/></g>
<g><path style="opacity:1" fill="#575757" d="M 212.5,50.5 C 203.134,50.2792 193.801,50.6126 184.5,51.5C 185.263,50.7321 186.263,50.2321 187.5,50C 196.01,49.1768 204.344,49.3434 212.5,50.5 Z"/></g>
<g><path style="opacity:1" fill="#707070" d="M 126.5,48.5 C 128.262,49.2623 129.262,50.5956 129.5,52.5C 127.738,51.7377 126.738,50.4044 126.5,48.5 Z"/></g>
<g><path style="opacity:1" fill="#b6b6b6" d="M 212.5,50.5 C 213.167,50.5 213.833,50.5 214.5,50.5C 214.5,50.8333 214.5,51.1667 214.5,51.5C 203.482,51.3808 192.482,51.7141 181.5,52.5C 182.209,51.596 183.209,51.2627 184.5,51.5C 193.801,50.6126 203.134,50.2792 212.5,50.5 Z"/></g>
<g><path style="opacity:1" fill="#636363" d="M 150.5,50.5 C 151.167,50.5 151.833,50.5 152.5,50.5C 150.485,51.9238 148.152,52.5905 145.5,52.5C 146.93,51.4625 148.597,50.7959 150.5,50.5 Z"/></g>
<g><path style="opacity:1" fill="#848484" d="M 214.5,51.5 C 214.5,51.1667 214.5,50.8333 214.5,50.5C 217.916,50.5275 220.916,51.5275 223.5,53.5C 220.426,53.1274 217.426,52.4608 214.5,51.5 Z"/></g>
<g><path style="opacity:1" fill="#a8a8a8" d="M 141.5,52.5 C 140.07,53.5375 138.403,54.2041 136.5,54.5C 137.635,52.7868 139.302,52.1201 141.5,52.5 Z"/></g>
<g><path style="opacity:1" fill="#909090" d="M 181.5,52.5 C 178.375,53.4794 175.042,53.8128 171.5,53.5C 164.515,54.0885 157.515,54.4218 150.5,54.5C 160.624,52.9302 170.958,52.2636 181.5,52.5 Z"/></g>
<g><path style="opacity:1" fill="#b9b9b9" d="M 122.5,51.5 C 124.587,52.5846 125.92,54.2512 126.5,56.5C 124.413,55.4154 123.08,53.7488 122.5,51.5 Z"/></g>
<g><path style="opacity:1" fill="#dddddd" d="M 171.5,53.5 C 162.391,55.2625 153.058,56.2625 143.5,56.5C 145.657,55.5933 147.99,54.9267 150.5,54.5C 157.515,54.4218 164.515,54.0885 171.5,53.5 Z"/></g>
<g><path style="opacity:1" fill="#cfcfcf" d="M 232.5,48.5 C 233.578,55.0653 230.911,57.232 224.5,55C 223.944,54.6174 223.611,54.1174 223.5,53.5C 225.979,54.6227 228.312,54.6227 230.5,53.5C 231.167,51.8333 231.833,50.1667 232.5,48.5 Z"/></g>
<g><path style="opacity:1" fill="#6e6e6e" d="M 94.5,43.5 C 94.2435,49.8844 93.5768,56.2177 92.5,62.5C 92.1667,62.5 91.8333,62.5 91.5,62.5C 92.1143,58.8648 92.4476,55.1981 92.5,51.5C 92.5,50.5 92.5,49.5 92.5,48.5C 93.1667,46.8333 93.8333,45.1667 94.5,43.5 Z"/></g>
<g><path style="opacity:1" fill="#878787" d="M 130.5,55.5 C 131.5,55.5 132.5,55.5 133.5,55.5C 133.5,56.1667 133.5,56.8333 133.5,57.5C 132.844,58.2778 132.011,58.9444 131,59.5C 130.235,59.4301 129.735,59.0967 129.5,58.5C 131.796,58.1959 132.129,57.1959 130.5,55.5 Z"/></g>
<g><path style="opacity:1" fill="#cfcfcf" d="M 99.5,39.5 C 99.8333,39.5 100.167,39.5 100.5,39.5C 100.038,53.0721 98.7049,66.4054 96.5,79.5C 96.183,66.016 97.183,52.6827 99.5,39.5 Z"/></g>
<g><path style="opacity:1" fill="#d5d5d5" d="M 92.5,51.5 C 92.4476,55.1981 92.1143,58.8648 91.5,62.5C 91.5,68.5 91.5,74.5 91.5,80.5C 90.8826,80.3893 90.3826,80.056 90,79.5C 89.3937,70.4718 89.727,61.4718 91,52.5C 91.3826,51.944 91.8826,51.6107 92.5,51.5 Z"/></g>
<g><path style="opacity:1" fill="#dcdcdc" d="M 274.5,70.5 C 274.833,70.5 275.167,70.5 275.5,70.5C 279.715,72.4364 284.381,73.1031 289.5,72.5C 289.5,72.8333 289.5,73.1667 289.5,73.5C 284.5,73.5 279.5,73.5 274.5,73.5C 274.5,72.5 274.5,71.5 274.5,70.5 Z"/></g>
<g><path style="opacity:1" fill="#a7a7a7" d="M 289.5,73.5 C 289.5,73.1667 289.5,72.8333 289.5,72.5C 292.5,72.5 295.5,72.5 298.5,72.5C 298.975,75.0821 298.308,77.0821 296.5,78.5C 296.5,78.1667 296.5,77.8333 296.5,77.5C 297.434,76.4324 297.768,75.099 297.5,73.5C 294.833,73.5 292.167,73.5 289.5,73.5 Z"/></g>
<g><path style="opacity:1" fill="#505050" d="M 91.5,62.5 C 91.8333,62.5 92.1667,62.5 92.5,62.5C 92.5,68.5 92.5,74.5 92.5,80.5C 93.5,80.5 94.5,80.5 95.5,80.5C 94.1667,81.8333 92.8333,81.8333 91.5,80.5C 91.5,74.5 91.5,68.5 91.5,62.5 Z"/></g>
<g><path style="opacity:1" fill="#999999" d="M 269.5,70.5 C 270.5,70.8333 271.167,71.5 271.5,72.5C 271.5,74.1667 271.5,75.8333 271.5,77.5C 270.593,75.3432 269.927,73.0098 269.5,70.5 Z"/></g>
<g><path style="opacity:1" fill="#909090" d="M 274.5,70.5 C 274.5,71.5 274.5,72.5 274.5,73.5C 279.5,73.5 284.5,73.5 289.5,73.5C 289.5,74.1667 289.167,74.5 288.5,74.5C 283.5,74.5 278.5,74.5 273.5,74.5C 273.5,73.5 273.5,72.5 273.5,71.5C 273.5,70.8333 273.833,70.5 274.5,70.5 Z"/></g>
<g><path style="opacity:1" fill="#303030" d="M 289.5,73.5 C 292.167,73.5 294.833,73.5 297.5,73.5C 297.768,75.099 297.434,76.4324 296.5,77.5C 288.472,77.831 280.472,77.4977 272.5,76.5C 277.985,75.8332 283.319,75.1665 288.5,74.5C 289.167,74.5 289.5,74.1667 289.5,73.5 Z"/></g>
<g><path style="opacity:1" fill="#9a9a9a" d="M 253.5,79.5 C 249.568,77.6177 245.568,77.2844 241.5,78.5C 242.694,77.2227 244.36,76.5561 246.5,76.5C 249.611,76.0118 251.944,77.0118 253.5,79.5 Z"/></g>
<g><path style="opacity:1" fill="#4f4f4f" d="M 273.5,71.5 C 273.5,72.5 273.5,73.5 273.5,74.5C 278.5,74.5 283.5,74.5 288.5,74.5C 283.319,75.1665 277.985,75.8332 272.5,76.5C 280.472,77.4977 288.472,77.831 296.5,77.5C 296.5,77.8333 296.5,78.1667 296.5,78.5C 295.833,78.5 295.167,78.5 294.5,78.5C 287.146,79.7525 279.813,79.7525 272.5,78.5C 271.833,78.5 271.5,78.1667 271.5,77.5C 271.5,75.8333 271.5,74.1667 271.5,72.5C 272.167,72.1667 272.833,71.8333 273.5,71.5 Z"/></g>
<g><path style="opacity:1" fill="#333333" d="M 253.5,79.5 C 254.167,80.8333 255.167,81.8333 256.5,82.5C 257.401,83.2905 258.068,84.2905 258.5,85.5C 259.051,88.8067 259.384,92.1401 259.5,95.5C 258.89,96.391 258.557,97.391 258.5,98.5C 254.878,98.678 251.544,98.0114 248.5,96.5C 246.544,95.5082 244.544,94.5082 242.5,93.5C 241.143,92.4097 240.143,91.0764 239.5,89.5C 239.113,85.5559 239.78,81.8892 241.5,78.5C 245.568,77.2844 249.568,77.6177 253.5,79.5 Z"/></g>
<g><path style="opacity:1" fill="#c3c3c3" d="M 253.5,79.5 C 255.5,79.5 256.5,80.5 256.5,82.5C 255.167,81.8333 254.167,80.8333 253.5,79.5 Z"/></g>
<g><path style="opacity:1" fill="#d4d4d4" d="M 272.5,78.5 C 279.813,79.7525 287.146,79.7525 294.5,78.5C 294.082,79.2216 293.416,79.7216 292.5,80C 286.167,80.6667 279.833,80.6667 273.5,80C 272.944,79.6174 272.611,79.1174 272.5,78.5 Z"/></g>
<g><path style="opacity:1" fill="#c5c5c5" d="M 80.5,83.5 C 78.901,83.2322 77.5676,83.5655 76.5,84.5C 75.8333,84.5 75.5,84.8333 75.5,85.5C 74.596,86.209 74.2627,87.209 74.5,88.5C 73.1134,86.5112 73.4468,84.6779 75.5,83C 77.3869,82.2204 79.0536,82.3871 80.5,83.5 Z"/></g>
<g><path style="opacity:1" fill="#b8b8b8" d="M 122.5,82.5 C 123.274,81.8529 124.274,81.5195 125.5,81.5C 127.355,81.3402 128.688,82.0069 129.5,83.5C 128.833,83.5 128.167,83.5 127.5,83.5C 126.081,82.5489 124.415,82.2155 122.5,82.5 Z"/></g>
<g><path style="opacity:1" fill="#5c5c5c" d="M 122.5,82.5 C 124.415,82.2155 126.081,82.5489 127.5,83.5C 124.549,83.2872 121.882,83.9539 119.5,85.5C 120.167,84.1667 121.167,83.1667 122.5,82.5 Z"/></g>
<g><path style="opacity:1" fill="#313131" d="M 127.5,83.5 C 128.167,83.5 128.833,83.5 129.5,83.5C 130.167,83.5 130.5,83.8333 130.5,84.5C 132.222,87.9196 132.889,91.5863 132.5,95.5C 132.5,96.5 132.5,97.5 132.5,98.5C 129.474,101.195 126.474,103.862 123.5,106.5C 121.5,106.5 119.5,106.5 117.5,106.5C 117.027,105.094 116.027,104.427 114.5,104.5C 113.64,100.566 113.307,96.5662 113.5,92.5C 114.5,92.1667 115.167,91.5 115.5,90.5C 117.587,89.4154 118.92,87.7488 119.5,85.5C 121.882,83.9539 124.549,83.2872 127.5,83.5 Z"/></g>
<g><path style="opacity:1" fill="#838383" d="M 241.5,78.5 C 239.78,81.8892 239.113,85.5559 239.5,89.5C 238.362,86.6965 238.195,83.6965 239,80.5C 239.708,79.6195 240.542,78.9528 241.5,78.5 Z"/></g>
<g><path style="opacity:1" fill="#999999" d="M 76.5,84.5 C 77.5676,83.5655 78.901,83.2322 80.5,83.5C 82.8984,83.2594 84.8984,83.9261 86.5,85.5C 83.1933,84.9492 79.8599,84.6159 76.5,84.5 Z"/></g>
<g><path style="opacity:1" fill="#b9b9b9" d="M 297.5,89.5 C 298.968,88.2209 299.635,86.5542 299.5,84.5C 296.287,84.19 293.287,84.5233 290.5,85.5C 287.813,85.3359 285.146,85.5026 282.5,86C 281.663,87.0113 281.33,88.1779 281.5,89.5C 280.199,88.1155 280.199,86.6155 281.5,85C 288.043,83.6124 294.543,83.4458 301,84.5C 302.238,87.9257 301.071,89.5923 297.5,89.5 Z"/></g>
<g><path style="opacity:1" fill="#313131" d="M 290.5,85.5 C 293.247,85.1866 295.914,85.52 298.5,86.5C 296.255,87.2082 294.255,88.2082 292.5,89.5C 288.833,89.5 285.167,89.5 281.5,89.5C 281.33,88.1779 281.663,87.0113 282.5,86C 285.146,85.5026 287.813,85.3359 290.5,85.5 Z"/></g>
<g><path style="opacity:1" fill="#777777" d="M 75.5,85.5 C 75.369,86.2389 75.5357,86.9056 76,87.5C 77.3024,88.0848 78.469,88.7515 79.5,89.5C 78.5,89.5 77.5,89.5 76.5,89.5C 75.8333,89.1667 75.1667,88.8333 74.5,88.5C 74.2627,87.209 74.596,86.209 75.5,85.5 Z"/></g>
<g><path style="opacity:1" fill="#3a3a3a" d="M 76.5,84.5 C 79.8599,84.6159 83.1933,84.9492 86.5,85.5C 89.6916,85.4045 92.6916,86.0712 95.5,87.5C 95.5,88.5 95.5,89.5 95.5,90.5C 90.0735,90.7825 84.7401,90.4491 79.5,89.5C 78.469,88.7515 77.3024,88.0848 76,87.5C 75.5357,86.9056 75.369,86.2389 75.5,85.5C 75.5,84.8333 75.8333,84.5 76.5,84.5 Z"/></g>
<g><path style="opacity:1" fill="#505050" d="M 290.5,85.5 C 293.287,84.5233 296.287,84.19 299.5,84.5C 299.635,86.5542 298.968,88.2209 297.5,89.5C 295.833,89.5 294.167,89.5 292.5,89.5C 294.255,88.2082 296.255,87.2082 298.5,86.5C 295.914,85.52 293.247,85.1866 290.5,85.5 Z"/></g>
<g><path style="opacity:1" fill="#626262" d="M 119.5,85.5 C 118.92,87.7488 117.587,89.4154 115.5,90.5C 115.5,90.1667 115.5,89.8333 115.5,89.5C 116.5,87.8333 117.833,86.5 119.5,85.5 Z"/></g>
<g><path style="opacity:1" fill="#b3b3b3" d="M 95.5,87.5 C 97.9845,88.7399 97.9845,89.7399 95.5,90.5C 95.5,89.5 95.5,88.5 95.5,87.5 Z"/></g>
<g><path style="opacity:1" fill="#686868" d="M 258.5,85.5 C 259.222,85.9175 259.722,86.5842 260,87.5C 260.497,90.146 260.664,92.8127 260.5,95.5C 260.167,95.5 259.833,95.5 259.5,95.5C 259.384,92.1401 259.051,88.8067 258.5,85.5 Z"/></g>
<g><path style="opacity:1" fill="#bababa" d="M 281.5,89.5 C 285.167,89.5 288.833,89.5 292.5,89.5C 294.167,89.5 295.833,89.5 297.5,89.5C 292.743,91.1941 287.743,91.6941 282.5,91C 281.944,90.6174 281.611,90.1174 281.5,89.5 Z"/></g>
<g><path style="opacity:1" fill="#cdcdcd" d="M 76.5,89.5 C 77.5,89.5 78.5,89.5 79.5,89.5C 84.7401,90.4491 90.0735,90.7825 95.5,90.5C 94.1286,91.7868 92.2953,92.4535 90,92.5C 86.1314,92.2719 82.2981,91.7719 78.5,91C 77.5842,90.7216 76.9175,90.2216 76.5,89.5 Z"/></g>
<g><path style="opacity:1" fill="#979797" d="M 115.5,89.5 C 115.5,89.8333 115.5,90.1667 115.5,90.5C 115.167,91.5 114.5,92.1667 113.5,92.5C 113.427,90.9731 114.094,89.9731 115.5,89.5 Z"/></g>
<g><path style="opacity:1" fill="#616161" d="M 130.5,84.5 C 132.144,84.8102 133.144,85.8102 133.5,87.5C 133.806,90.3854 133.473,93.0521 132.5,95.5C 132.889,91.5863 132.222,87.9196 130.5,84.5 Z"/></g>
<g><path style="opacity:1" fill="#c1c1c1" d="M 239.5,89.5 C 240.143,91.0764 241.143,92.4097 242.5,93.5C 242.833,94.1667 243.167,94.8333 243.5,95.5C 240.224,94.8784 238.891,92.8784 239.5,89.5 Z"/></g>
<g><path style="opacity:1" fill="#6c6c6c" d="M 242.5,93.5 C 244.544,94.5082 246.544,95.5082 248.5,96.5C 246.708,96.634 245.042,96.3007 243.5,95.5C 243.167,94.8333 242.833,94.1667 242.5,93.5 Z"/></g>
<g><path style="opacity:1" fill="#a3a3a3" d="M 259.5,95.5 C 259.833,95.5 260.167,95.5 260.5,95.5C 260.573,97.0269 259.906,98.0269 258.5,98.5C 258.557,97.391 258.89,96.391 259.5,95.5 Z"/></g>
<g><path style="opacity:1" fill="#777777" d="M 113.5,92.5 C 113.307,96.5662 113.64,100.566 114.5,104.5C 113.883,104.389 113.383,104.056 113,103.5C 112.19,99.6425 112.357,95.9758 113.5,92.5 Z"/></g>
<g><path style="opacity:1" fill="#d9d9d9" d="M 133.5,87.5 C 134.643,90.9758 134.81,94.6425 134,98.5C 133.617,99.056 133.117,99.3893 132.5,99.5C 132.5,99.1667 132.5,98.8333 132.5,98.5C 132.5,97.5 132.5,96.5 132.5,95.5C 133.473,93.0521 133.806,90.3854 133.5,87.5 Z"/></g>
<g><path style="opacity:1" fill="#d1d1d1" d="M 192.5,97.5 C 192.371,99.2161 192.038,100.883 191.5,102.5C 191.167,102.5 190.833,102.5 190.5,102.5C 190.077,100.219 190.744,98.5521 192.5,97.5 Z"/></g>
<g><path style="opacity:1" fill="#a1a1a1" d="M 286.5,98.5 C 285.503,98.4701 284.836,98.9701 284.5,100C 285.956,103.4 286.956,106.9 287.5,110.5C 284.769,106.678 283.436,102.344 283.5,97.5C 284.791,97.2627 285.791,97.596 286.5,98.5 Z"/></g>
<g><path style="opacity:1" fill="#cdcdcd" d="M 88.5,101.5 C 82.9738,101.179 77.6405,101.512 72.5,102.5C 72.1667,102.5 71.8333,102.5 71.5,102.5C 73.9151,101.186 76.7485,100.519 80,100.5C 83.0208,100.502 85.8541,100.836 88.5,101.5 Z"/></g>
<g><path style="opacity:1" fill="#828282" d="M 72.5,102.5 C 77.6405,101.512 82.9738,101.179 88.5,101.5C 88.8333,101.5 89.1667,101.5 89.5,101.5C 89.6716,102.492 89.3382,103.158 88.5,103.5C 83.3595,102.512 78.0262,102.179 72.5,102.5 Z"/></g>
<g><path style="opacity:1" fill="#b5b5b5" d="M 132.5,98.5 C 132.5,98.8333 132.5,99.1667 132.5,99.5C 130.363,102.973 127.363,105.306 123.5,106.5C 126.474,103.862 129.474,101.195 132.5,98.5 Z"/></g>
<g><path style="opacity:1" fill="#5b5b5b" d="M 185.5,104.5 C 184.448,104.351 183.448,104.517 182.5,105C 183.381,105.708 184.047,106.542 184.5,107.5C 183.391,107.443 182.391,107.11 181.5,106.5C 180.791,105.596 179.791,105.263 178.5,105.5C 181.206,101.539 180.539,100.872 176.5,103.5C 176.76,101.405 177.926,100.072 180,99.5C 181.709,101.379 183.542,103.046 185.5,104.5 Z"/></g>
<g><path style="opacity:1" fill="#848484" d="M 287.5,100.5 C 288.906,100.973 289.573,101.973 289.5,103.5C 288.094,103.027 287.427,102.027 287.5,100.5 Z"/></g>
<g><path style="opacity:1" fill="#333333" d="M 72.5,102.5 C 78.0262,102.179 83.3595,102.512 88.5,103.5C 86.4525,105.075 84.1192,106.075 81.5,106.5C 78.8127,106.664 76.146,106.497 73.5,106C 72.6634,104.989 72.33,103.822 72.5,102.5 Z"/></g>
<g><path style="opacity:1" fill="#7a7a7a" d="M 190.5,102.5 C 190.833,102.5 191.167,102.5 191.5,102.5C 191.586,103.496 191.252,104.329 190.5,105C 188.613,105.78 186.946,105.613 185.5,104.5C 187.698,104.88 189.365,104.213 190.5,102.5 Z"/></g>
<g><path style="opacity:1" fill="#828282" d="M 114.5,104.5 C 116.027,104.427 117.027,105.094 117.5,106.5C 115.973,106.573 114.973,105.906 114.5,104.5 Z"/></g>
<g><path style="opacity:1" fill="#424242" d="M 195.5,103.5 C 193.738,104.262 192.738,105.596 192.5,107.5C 189.946,108.388 187.279,108.721 184.5,108.5C 184.5,108.167 184.5,107.833 184.5,107.5C 184.047,106.542 183.381,105.708 182.5,105C 183.448,104.517 184.448,104.351 185.5,104.5C 186.946,105.613 188.613,105.78 190.5,105C 191.252,104.329 191.586,103.496 191.5,102.5C 192.038,100.883 192.371,99.2161 192.5,97.5C 193.542,96.2089 194.708,96.2089 196,97.5C 196.49,99.5454 196.323,101.545 195.5,103.5 Z"/></g>
<g><path style="opacity:1" fill="#9b9b9b" d="M 195.5,103.5 C 195.267,105.062 194.6,106.395 193.5,107.5C 193.167,107.5 192.833,107.5 192.5,107.5C 192.738,105.596 193.738,104.262 195.5,103.5 Z"/></g>
<g><path style="opacity:1" fill="#757575" d="M 71.5,102.5 C 71.8333,102.5 72.1667,102.5 72.5,102.5C 72.33,103.822 72.6634,104.989 73.5,106C 76.146,106.497 78.8127,106.664 81.5,106.5C 81.5,106.833 81.5,107.167 81.5,107.5C 78.4816,107.665 75.4816,107.498 72.5,107C 71.6198,105.644 71.2865,104.144 71.5,102.5 Z"/></g>
<g><path style="opacity:1" fill="#dadada" d="M 89.5,101.5 C 92.9782,102.928 93.9782,105.261 92.5,108.5C 92.5,107.5 92.5,106.5 92.5,105.5C 90.0274,105.088 88.6941,106.088 88.5,108.5C 87.8333,108.833 87.1667,109.167 86.5,109.5C 85.4479,107.744 83.7812,107.077 81.5,107.5C 81.5,107.167 81.5,106.833 81.5,106.5C 84.1192,106.075 86.4525,105.075 88.5,103.5C 89.3382,103.158 89.6716,102.492 89.5,101.5 Z"/></g>
<g><path style="opacity:1" fill="#6e6e6e" d="M 92.5,108.5 C 91.8571,110.076 90.8571,111.41 89.5,112.5C 90.2178,110.863 90.3845,109.197 90,107.5C 89.6174,108.056 89.1174,108.389 88.5,108.5C 88.6941,106.088 90.0274,105.088 92.5,105.5C 92.5,106.5 92.5,107.5 92.5,108.5 Z"/></g>
<g><path style="opacity:1" fill="#676767" d="M 165.5,103.5 C 164.735,108.906 167.069,110.906 172.5,109.5C 170.393,110.468 168.059,110.802 165.5,110.5C 164.244,108.059 164.244,105.726 165.5,103.5 Z"/></g>
<g><path style="opacity:1" fill="#949494" d="M 171.5,106.5 C 170.432,107.434 169.099,107.768 167.5,107.5C 167.66,105.801 167.494,104.134 167,102.5C 166.617,103.056 166.117,103.389 165.5,103.5C 165.834,100.725 167.167,100.059 169.5,101.5C 168.691,103.071 168.357,104.738 168.5,106.5C 169.5,106.5 170.5,106.5 171.5,106.5 Z"/></g>
<g><path style="opacity:1" fill="#d4d4d4" d="M 178.5,105.5 C 179.791,105.263 180.791,105.596 181.5,106.5C 179.989,107.502 178.322,108.169 176.5,108.5C 177.167,107.5 177.833,106.5 178.5,105.5 Z"/></g>
<g><path style="opacity:1" fill="#3c3c3c" d="M 178.5,105.5 C 177.833,106.5 177.167,107.5 176.5,108.5C 175.167,108.833 173.833,109.167 172.5,109.5C 167.069,110.906 164.735,108.906 165.5,103.5C 166.117,103.389 166.617,103.056 167,102.5C 167.494,104.134 167.66,105.801 167.5,107.5C 169.099,107.768 170.432,107.434 171.5,106.5C 171.833,106.5 172.167,106.5 172.5,106.5C 174.027,106.573 175.027,105.906 175.5,104.5C 175.5,103.833 175.833,103.5 176.5,103.5C 180.539,100.872 181.206,101.539 178.5,105.5 Z"/></g>
<g><path style="opacity:1" fill="#7d7d7d" d="M 175.5,104.5 C 175.027,105.906 174.027,106.573 172.5,106.5C 172.973,105.094 173.973,104.427 175.5,104.5 Z"/></g>
<g><path style="opacity:1" fill="#d2d2d2" d="M 192.5,107.5 C 192.833,107.5 193.167,107.5 193.5,107.5C 193.389,108.117 193.056,108.617 192.5,109C 189.633,109.801 186.966,109.634 184.5,108.5C 187.279,108.721 189.946,108.388 192.5,107.5 Z"/></g>
<g><path style="opacity:1" fill="#848484" d="M 289.5,103.5 C 291.245,105.033 292.245,107.033 292.5,109.5C 290.755,107.967 289.755,105.967 289.5,103.5 Z"/></g>
<g><path style="opacity:1" fill="#c0c0c0" d="M 176.5,108.5 C 176.119,109.931 175.119,110.764 173.5,111C 170.633,111.801 167.966,111.634 165.5,110.5C 168.059,110.802 170.393,110.468 172.5,109.5C 173.833,109.167 175.167,108.833 176.5,108.5 Z"/></g>
<g><path style="opacity:1" fill="#888888" d="M 88.5,108.5 C 87.4918,110.544 86.4918,112.544 85.5,114.5C 85.366,112.708 85.6993,111.042 86.5,109.5C 87.1667,109.167 87.8333,108.833 88.5,108.5 Z"/></g>
<g><path style="opacity:1" fill="#9d9d9d" d="M 293.5,111.5 C 295.245,113.033 296.245,115.033 296.5,117.5C 294.755,115.967 293.755,113.967 293.5,111.5 Z"/></g>
<g><path style="opacity:1" fill="#c1c1c1" d="M 296.5,117.5 C 298.213,118.635 298.88,120.302 298.5,122.5C 297.833,121.5 297.167,120.5 296.5,119.5C 296.5,118.833 296.5,118.167 296.5,117.5 Z"/></g>
<g><path style="opacity:1" fill="#363636" d="M 286.5,98.5 C 286.833,99.1667 287.167,99.8333 287.5,100.5C 287.427,102.027 288.094,103.027 289.5,103.5C 289.755,105.967 290.755,107.967 292.5,109.5C 293.338,109.842 293.672,110.508 293.5,111.5C 293.755,113.967 294.755,115.967 296.5,117.5C 296.5,118.167 296.5,118.833 296.5,119.5C 298.572,126.764 298.905,134.097 297.5,141.5C 295.738,142.262 294.738,143.596 294.5,145.5C 293.833,145.5 293.5,145.833 293.5,146.5C 290.883,147.786 288.55,149.453 286.5,151.5C 284.326,151.75 282.659,152.75 281.5,154.5C 280.508,154.328 279.842,154.662 279.5,155.5C 275.642,155.77 272.309,157.103 269.5,159.5C 269.167,159.5 268.833,159.5 268.5,159.5C 266.597,159.796 264.93,160.463 263.5,161.5C 263.5,162.167 263.167,162.5 262.5,162.5C 260.139,162.674 257.806,163.007 255.5,163.5C 253.302,163.12 251.635,163.787 250.5,165.5C 247.833,165.833 245.167,166.167 242.5,166.5C 233.895,168.221 225.228,169.554 216.5,170.5C 215.833,170.5 215.5,170.167 215.5,169.5C 215.511,167.983 216.177,166.816 217.5,166C 222.869,165.883 227.869,164.716 232.5,162.5C 233.167,162.5 233.833,162.5 234.5,162.5C 237.807,161.949 241.14,161.616 244.5,161.5C 247.152,161.59 249.485,160.924 251.5,159.5C 253.117,158.962 254.784,158.629 256.5,158.5C 258.898,158.741 260.898,158.074 262.5,156.5C 262.5,155.833 262.833,155.5 263.5,155.5C 264.833,155.167 266.167,154.833 267.5,154.5C 269.027,154.573 270.027,153.906 270.5,152.5C 271.833,152.167 273.167,151.833 274.5,151.5C 277.331,150.921 279.664,149.588 281.5,147.5C 282.514,146.326 283.847,145.66 285.5,145.5C 287.404,145.262 288.738,144.262 289.5,142.5C 289.5,141.833 289.833,141.5 290.5,141.5C 291.794,140.71 292.961,139.71 294,138.5C 294.667,133.833 294.667,129.167 294,124.5C 293.617,123.944 293.117,123.611 292.5,123.5C 292.88,121.302 292.213,119.635 290.5,118.5C 289.795,115.646 288.795,112.979 287.5,110.5C 286.956,106.9 285.956,103.4 284.5,100C 284.836,98.9701 285.503,98.4701 286.5,98.5 Z"/></g>
<g><path style="opacity:1" fill="#ababab" d="M 290.5,118.5 C 292.213,119.635 292.88,121.302 292.5,123.5C 290.787,122.365 290.12,120.698 290.5,118.5 Z"/></g>
<g><path style="opacity:1" fill="#747474" d="M 292.5,123.5 C 293.117,123.611 293.617,123.944 294,124.5C 294.667,129.167 294.667,133.833 294,138.5C 292.961,139.71 291.794,140.71 290.5,141.5C 290.685,139.804 291.519,138.471 293,137.5C 293.564,132.806 293.397,128.14 292.5,123.5 Z"/></g>
<g><path style="opacity:1" fill="#747474" d="M 296.5,119.5 C 297.167,120.5 297.833,121.5 298.5,122.5C 299.579,128.449 299.746,134.449 299,140.5C 298.617,141.056 298.117,141.389 297.5,141.5C 298.905,134.097 298.572,126.764 296.5,119.5 Z"/></g>
<g><path style="opacity:1" fill="#989898" d="M 83.5,118.5 C 83.5,127.5 83.5,136.5 83.5,145.5C 81.9608,142.135 81.2942,138.469 81.5,134.5C 81.5277,128.944 82.1944,123.611 83.5,118.5 Z"/></g>
<g><path style="opacity:1" fill="#727272" d="M 289.5,142.5 C 288.738,144.262 287.404,145.262 285.5,145.5C 286.262,143.738 287.596,142.738 289.5,142.5 Z"/></g>
<g><path style="opacity:1" fill="#9a9a9a" d="M 297.5,141.5 C 297.262,143.404 296.262,144.738 294.5,145.5C 294.738,143.596 295.738,142.262 297.5,141.5 Z"/></g>
<g><path style="opacity:1" fill="#636363" d="M 87.5,140.5 C 88.7495,141.778 90.2495,142.778 92,143.5C 92.49,144.793 92.6567,146.127 92.5,147.5C 91.6255,145.31 89.9589,144.31 87.5,144.5C 87.5,143.167 87.5,141.833 87.5,140.5 Z"/></g>
<g><path style="opacity:1" fill="#828282" d="M 281.5,147.5 C 279.664,149.588 277.331,150.921 274.5,151.5C 276.046,149.069 278.379,147.736 281.5,147.5 Z"/></g>
<g><path style="opacity:1" fill="#999999" d="M 293.5,146.5 C 292.008,149.323 289.674,150.99 286.5,151.5C 288.55,149.453 290.883,147.786 293.5,146.5 Z"/></g>
<g><path style="opacity:1" fill="#7f7f7f" d="M 92.5,148.5 C 94.2451,150.033 95.2451,152.033 95.5,154.5C 93.7549,152.967 92.7549,150.967 92.5,148.5 Z"/></g>
<g><path style="opacity:1" fill="#838383" d="M 270.5,152.5 C 270.027,153.906 269.027,154.573 267.5,154.5C 267.5,154.167 267.5,153.833 267.5,153.5C 268.391,152.89 269.391,152.557 270.5,152.5 Z"/></g>
<g><path style="opacity:1" fill="#a7a7a7" d="M 286.5,151.5 C 285.514,153.408 283.848,154.408 281.5,154.5C 282.659,152.75 284.326,151.75 286.5,151.5 Z"/></g>
<g><path style="opacity:1" fill="#c0c0c0" d="M 267.5,153.5 C 267.5,153.833 267.5,154.167 267.5,154.5C 266.167,154.833 264.833,155.167 263.5,155.5C 264.287,153.896 265.62,153.229 267.5,153.5 Z"/></g>
<g><path style="opacity:1" fill="#7d7d7d" d="M 95.5,154.5 C 96.5,154.833 97.1667,155.5 97.5,156.5C 97.5,156.833 97.5,157.167 97.5,157.5C 96.0937,157.027 95.427,156.027 95.5,154.5 Z"/></g>
<g><path style="opacity:1" fill="#bdbdbd" d="M 97.5,157.5 C 97.5,157.167 97.5,156.833 97.5,156.5C 100.504,158.186 103.17,160.186 105.5,162.5C 102.319,161.651 99.6523,159.985 97.5,157.5 Z"/></g>
<g><path style="opacity:1" fill="#717171" d="M 262.5,156.5 C 260.898,158.074 258.898,158.741 256.5,158.5C 256.5,158.167 256.5,157.833 256.5,157.5C 258.435,156.85 260.435,156.517 262.5,156.5 Z"/></g>
<g><path style="opacity:1" fill="#989898" d="M 279.5,155.5 C 276.482,157.4 273.149,158.733 269.5,159.5C 272.309,157.103 275.642,155.77 279.5,155.5 Z"/></g>
<g><path style="opacity:1" fill="#ababab" d="M 256.5,157.5 C 256.5,157.833 256.5,158.167 256.5,158.5C 254.784,158.629 253.117,158.962 251.5,159.5C 250.833,159.5 250.167,159.5 249.5,159.5C 251.515,158.076 253.848,157.41 256.5,157.5 Z"/></g>
<g><path style="opacity:1" fill="#858585" d="M 88.5,153.5 C 90.539,154.911 91.539,156.911 91.5,159.5C 85.1033,160.407 78.7699,161.74 72.5,163.5C 77.6848,160.42 83.3514,158.753 89.5,158.5C 89.3713,156.784 89.038,155.117 88.5,153.5 Z"/></g>
<g><path style="opacity:1" fill="#616161" d="M 249.5,159.5 C 250.167,159.5 250.833,159.5 251.5,159.5C 249.485,160.924 247.152,161.59 244.5,161.5C 244.5,161.167 244.5,160.833 244.5,160.5C 246.216,160.371 247.883,160.038 249.5,159.5 Z"/></g>
<g><path style="opacity:1" fill="#848484" d="M 268.5,159.5 C 267.365,161.213 265.698,161.88 263.5,161.5C 264.93,160.463 266.597,159.796 268.5,159.5 Z"/></g>
<g><path style="opacity:1" fill="#a3a3a3" d="M 244.5,160.5 C 244.5,160.833 244.5,161.167 244.5,161.5C 241.14,161.616 237.807,161.949 234.5,162.5C 234.918,161.778 235.584,161.278 236.5,161C 239.146,160.503 241.813,160.336 244.5,160.5 Z"/></g>
<g><path style="opacity:1" fill="#838383" d="M 72.5,163.5 C 71.4863,164.674 70.153,165.34 68.5,165.5C 69.1834,163.824 70.5168,163.157 72.5,163.5 Z"/></g>
<g><path style="opacity:1" fill="#838383" d="M 105.5,162.5 C 107.027,162.427 108.027,163.094 108.5,164.5C 106.973,164.573 105.973,163.906 105.5,162.5 Z"/></g>
<g><path style="opacity:1" fill="#adadad" d="M 232.5,162.5 C 227.869,164.716 222.869,165.883 217.5,166C 216.177,166.816 215.511,167.983 215.5,169.5C 214.197,167.243 214.864,165.41 217.5,164C 222.519,163.589 227.519,163.089 232.5,162.5 Z"/></g>
<g><path style="opacity:1" fill="#656565" d="M 255.5,163.5 C 254.5,164.167 253.5,164.833 252.5,165.5C 251.833,165.5 251.167,165.5 250.5,165.5C 251.635,163.787 253.302,163.12 255.5,163.5 Z"/></g>
<g><path style="opacity:1" fill="#a9a9a9" d="M 262.5,162.5 C 259.495,164.277 256.162,165.277 252.5,165.5C 253.5,164.833 254.5,164.167 255.5,163.5C 257.806,163.007 260.139,162.674 262.5,162.5 Z"/></g>
<g><path style="opacity:1" fill="#fcfcfc" d="M 95.5,162.5 C 96.5846,164.587 98.2512,165.92 100.5,166.5C 101.262,168.262 102.596,169.262 104.5,169.5C 108.054,171.109 111.721,172.442 115.5,173.5C 115.973,174.906 116.973,175.573 118.5,175.5C 120.042,176.301 121.708,176.634 123.5,176.5C 124.93,177.537 126.597,178.204 128.5,178.5C 135.395,178.85 142.062,179.85 148.5,181.5C 147.833,182.5 147.167,183.5 146.5,184.5C 145.094,184.973 144.427,185.973 144.5,187.5C 144.167,188.167 143.833,188.833 143.5,189.5C 141.938,189.733 140.605,190.4 139.5,191.5C 137.078,193.286 137.078,194.952 139.5,196.5C 138.4,197.605 137.733,198.938 137.5,200.5C 135.178,201.802 133.845,203.802 133.5,206.5C 131.738,207.262 130.738,208.596 130.5,210.5C 130.167,211.167 129.833,211.833 129.5,212.5C 127.755,214.033 126.755,216.033 126.5,218.5C 126.5,219.167 126.5,219.833 126.5,220.5C 124.75,224.183 124.083,228.183 124.5,232.5C 123.85,234.435 123.517,236.435 123.5,238.5C 121.973,246.16 122.306,253.827 124.5,261.5C 123.448,263.256 121.781,263.923 119.5,263.5C 116.026,262.475 112.36,261.808 108.5,261.5C 108.167,260.833 107.833,260.167 107.5,259.5C 107.536,256.539 106.536,254.206 104.5,252.5C 104.5,250.167 104.5,247.833 104.5,245.5C 104.5,238.5 104.5,231.5 104.5,224.5C 105.906,224.027 106.573,223.027 106.5,221.5C 107.5,221.167 108.167,220.5 108.5,219.5C 111.573,217.431 113.906,214.764 115.5,211.5C 116.906,211.027 117.573,210.027 117.5,208.5C 120.682,206.807 122.348,204.141 122.5,200.5C 123.167,200.5 123.5,200.167 123.5,199.5C 124.643,196.024 124.81,192.358 124,188.5C 123.617,187.944 123.117,187.611 122.5,187.5C 121.662,187.158 121.328,186.492 121.5,185.5C 119.789,181.796 116.789,179.796 112.5,179.5C 107.913,177.544 103.246,177.211 98.5,178.5C 96.847,178.66 95.5137,179.326 94.5,180.5C 91.509,180.166 89.1757,181.166 87.5,183.5C 85.847,183.66 84.5137,184.326 83.5,185.5C 81.9731,185.427 80.9731,186.094 80.5,187.5C 78.9731,187.427 77.9731,188.094 77.5,189.5C 75.2512,190.08 73.5846,191.413 72.5,193.5C 69.7318,195.087 67.0652,196.92 64.5,199C 62.5359,200.451 61.2026,202.284 60.5,204.5C 58.7376,205.262 57.7376,206.596 57.5,208.5C 56.5416,208.953 55.7083,209.619 55,210.5C 52.5239,217.427 50.3573,224.427 48.5,231.5C 47.2059,234.354 45.5392,237.021 43.5,239.5C 40.6146,239.806 37.9479,239.473 35.5,238.5C 34.7377,236.738 33.4044,235.738 31.5,235.5C 30.1667,233.5 28.8333,231.5 27.5,229.5C 27.3259,227.139 26.9926,224.806 26.5,222.5C 26.1286,215.681 26.7952,209.014 28.5,202.5C 31.1457,199.841 33.479,196.841 35.5,193.5C 38.4274,192.243 40.7607,190.243 42.5,187.5C 44.0269,187.573 45.0269,186.906 45.5,185.5C 47.0269,185.573 48.0269,184.906 48.5,183.5C 50.4044,183.262 51.7377,182.262 52.5,180.5C 54.4044,180.262 55.7377,179.262 56.5,177.5C 58.4044,177.262 59.7377,176.262 60.5,174.5C 62.7457,173.545 65.079,172.878 67.5,172.5C 69.674,172.25 71.3406,171.25 72.5,169.5C 80.3949,167.756 88.0616,165.423 95.5,162.5 Z"/></g>
<g><path style="opacity:1" fill="#9f9f9f" d="M 108.5,164.5 C 110.698,164.12 112.365,164.787 113.5,166.5C 111.597,166.204 109.93,165.537 108.5,164.5 Z"/></g>
<g><path style="opacity:1" fill="#989898" d="M 66.5,165.5 C 64.3877,167.771 61.721,169.104 58.5,169.5C 60.6123,167.229 63.279,165.896 66.5,165.5 Z"/></g>
<g><path style="opacity:1" fill="#939393" d="M 115.5,167.5 C 117.698,167.12 119.365,167.787 120.5,169.5C 118.597,169.204 116.93,168.537 115.5,167.5 Z"/></g>
<g><path style="opacity:1" fill="#808080" d="M 120.5,169.5 C 122.898,169.259 124.898,169.926 126.5,171.5C 124.102,171.741 122.102,171.074 120.5,169.5 Z"/></g>
<g><path style="opacity:1" fill="#7f7f7f" d="M 242.5,166.5 C 237.912,167.799 233.579,169.466 229.5,171.5C 228.167,171.5 227.5,172.167 227.5,173.5C 223.958,171.993 220.292,170.993 216.5,170.5C 225.228,169.554 233.895,168.221 242.5,166.5 Z"/></g>
<g><path style="opacity:1" fill="#7b7b7b" d="M 58.5,169.5 C 57.5144,171.408 55.8477,172.408 53.5,172.5C 54.6594,170.75 56.326,169.75 58.5,169.5 Z"/></g>
<g><path style="opacity:1" fill="#a1a1a1" d="M 127.5,171.5 C 137.857,171.328 148.19,171.661 158.5,172.5C 158.405,174.786 157.738,176.786 156.5,178.5C 156.286,176.856 156.62,175.356 157.5,174C 156.906,173.536 156.239,173.369 155.5,173.5C 147.868,172.642 140.201,172.309 132.5,172.5C 130.585,172.784 128.919,172.451 127.5,171.5 Z"/></g>
<g><path style="opacity:1" fill="#464646" d="M 132.5,172.5 C 140.201,172.309 147.868,172.642 155.5,173.5C 154.965,175.446 153.632,176.446 151.5,176.5C 152.953,175.175 152.619,174.342 150.5,174C 144.319,173.828 138.319,173.328 132.5,172.5 Z"/></g>
<g><path style="opacity:1" fill="#848484" d="M 229.5,171.5 C 231.975,172.687 232.975,174.687 232.5,177.5C 231.508,175.544 230.508,173.544 229.5,171.5 Z"/></g>
<g><path style="opacity:1" fill="#808080" d="M 53.5,172.5 C 50.3988,175.933 46.7321,178.6 42.5,180.5C 45.6012,177.067 49.2679,174.4 53.5,172.5 Z"/></g>
<g><path style="opacity:1" fill="#878787" d="M 227.5,173.5 C 228.924,175.515 229.59,177.848 229.5,180.5C 228.076,178.485 227.41,176.152 227.5,173.5 Z"/></g>
<g><path style="opacity:1" fill="#cecece" d="M 98.5,178.5 C 103.246,177.211 107.913,177.544 112.5,179.5C 107.833,179.167 103.167,178.833 98.5,178.5 Z"/></g>
<g><path style="opacity:1" fill="#858585" d="M 123.5,176.5 C 131.8,177.371 140.133,177.705 148.5,177.5C 142.021,178.491 135.354,178.824 128.5,178.5C 126.597,178.204 124.93,177.537 123.5,176.5 Z"/></g>
<g><path style="opacity:1" fill="#636363" d="M 155.5,173.5 C 156.239,173.369 156.906,173.536 157.5,174C 156.62,175.356 156.286,176.856 156.5,178.5C 156.5,179.167 156.167,179.5 155.5,179.5C 155.167,179.5 154.833,179.5 154.5,179.5C 153.652,178.375 152.652,178.375 151.5,179.5C 151.179,177.952 150.179,177.285 148.5,177.5C 149.209,176.596 150.209,176.263 151.5,176.5C 153.632,176.446 154.965,175.446 155.5,173.5 Z"/></g>
<g><path style="opacity:1" fill="#a3a3a3" d="M 56.5,177.5 C 55.7377,179.262 54.4044,180.262 52.5,180.5C 53.2623,178.738 54.5956,177.738 56.5,177.5 Z"/></g>
<g><path style="opacity:1" fill="#d1d1d1" d="M 148.5,177.5 C 150.179,177.285 151.179,177.952 151.5,179.5C 150.5,179.833 149.833,180.5 149.5,181.5C 149.167,181.5 148.833,181.5 148.5,181.5C 142.062,179.85 135.395,178.85 128.5,178.5C 135.354,178.824 142.021,178.491 148.5,177.5 Z"/></g>
<g><path style="opacity:1" fill="#7a7a7a" d="M 42.5,180.5 C 41.7377,182.262 40.4044,183.262 38.5,183.5C 39.2623,181.738 40.5956,180.738 42.5,180.5 Z"/></g>
<g><path style="opacity:1" fill="#a3a3a3" d="M 154.5,179.5 C 154.833,179.5 155.167,179.5 155.5,179.5C 155.573,181.027 154.906,182.027 153.5,182.5C 153.557,181.391 153.89,180.391 154.5,179.5 Z"/></g>
<g><path style="opacity:1" fill="#373737" d="M 229.5,171.5 C 230.508,173.544 231.508,175.544 232.5,177.5C 233.537,178.93 234.204,180.597 234.5,182.5C 235.576,185.871 236.576,189.204 237.5,192.5C 237.528,195.916 238.528,198.916 240.5,201.5C 240.5,201.833 240.5,202.167 240.5,202.5C 242.249,211.049 242.916,219.716 242.5,228.5C 241.504,228.586 240.671,228.252 240,227.5C 239.667,221.5 239.333,215.5 239,209.5C 238.768,208.263 238.268,207.263 237.5,206.5C 237.737,205.209 237.404,204.209 236.5,203.5C 236.5,203.167 236.5,202.833 236.5,202.5C 236.573,200.973 235.906,199.973 234.5,199.5C 234.5,198.833 234.5,198.167 234.5,197.5C 233.806,192.085 232.14,187.085 229.5,182.5C 229.5,181.833 229.5,181.167 229.5,180.5C 229.59,177.848 228.924,175.515 227.5,173.5C 227.5,172.167 228.167,171.5 229.5,171.5 Z"/></g>
<g><path style="opacity:1" fill="#858585" d="M 152.5,186.5 C 152.573,188.027 151.906,189.027 150.5,189.5C 150.427,187.973 151.094,186.973 152.5,186.5 Z"/></g>
<g><path style="opacity:1" fill="#c9c9c9" d="M 234.5,182.5 C 237.82,186.049 239.487,190.382 239.5,195.5C 238.833,194.5 238.167,193.5 237.5,192.5C 236.576,189.204 235.576,185.871 234.5,182.5 Z"/></g>
<g><path style="opacity:1" fill="#9e9e9e" d="M 229.5,182.5 C 232.14,187.085 233.806,192.085 234.5,197.5C 232.023,192.854 230.356,187.854 229.5,182.5 Z"/></g>
<g><path style="opacity:1" fill="#838383" d="M 38.5,183.5 C 35.0638,187.057 31.3971,190.391 27.5,193.5C 28.2026,191.284 29.5359,189.451 31.5,188C 33.7343,186.25 36.0676,184.75 38.5,183.5 Z"/></g>
<g><path style="opacity:1" fill="#6c6c6c" d="M 27.5,193.5 C 27.573,195.027 26.9063,196.027 25.5,196.5C 25.5,196.167 25.5,195.833 25.5,195.5C 25.8333,194.5 26.5,193.833 27.5,193.5 Z"/></g>
<g><path style="opacity:1" fill="#919191" d="M 148.5,193.5 C 148.573,195.027 147.906,196.027 146.5,196.5C 146.427,194.973 147.094,193.973 148.5,193.5 Z"/></g>
<g><path style="opacity:1" fill="#adadad" d="M 25.5,195.5 C 25.5,195.833 25.5,196.167 25.5,196.5C 25.1667,197.5 24.5,198.167 23.5,198.5C 23.427,196.973 24.0937,195.973 25.5,195.5 Z"/></g>
<g><path style="opacity:1" fill="#656565" d="M 237.5,192.5 C 238.167,193.5 238.833,194.5 239.5,195.5C 240.15,197.435 240.483,199.435 240.5,201.5C 238.528,198.916 237.528,195.916 237.5,192.5 Z"/></g>
<g><path style="opacity:1" fill="#afafaf" d="M 146.5,196.5 C 146.408,198.848 145.408,200.514 143.5,201.5C 143.75,199.326 144.75,197.659 146.5,196.5 Z"/></g>
<g><path style="opacity:1" fill="#aaaaaa" d="M 234.5,199.5 C 235.906,199.973 236.573,200.973 236.5,202.5C 235.094,202.027 234.427,201.027 234.5,199.5 Z"/></g>
<g><path style="opacity:1" fill="#7f7f7f" d="M 23.5,200.5 C 23.573,202.027 22.9063,203.027 21.5,203.5C 21.427,201.973 22.0937,200.973 23.5,200.5 Z"/></g>
<g><path style="opacity:1" fill="#bcbcbc" d="M 143.5,201.5 C 142.702,203.966 141.369,205.966 139.5,207.5C 139.845,204.802 141.178,202.802 143.5,201.5 Z"/></g>
<g><path style="opacity:1" fill="#b4b4b4" d="M 139.5,207.5 C 139.264,210.621 137.931,212.954 135.5,214.5C 136.079,211.669 137.412,209.336 139.5,207.5 Z"/></g>
<g><path style="opacity:1" fill="#696969" d="M 21.5,204.5 C 20.2427,212.147 20.2427,219.813 21.5,227.5C 20.8333,226.5 20.1667,225.5 19.5,224.5C 18.8745,217.416 19.5411,210.75 21.5,204.5 Z"/></g>
<g><path style="opacity:1" fill="#989898" d="M 135.5,214.5 C 135.573,216.027 134.906,217.027 133.5,217.5C 133.427,215.973 134.094,214.973 135.5,214.5 Z"/></g>
<g><path style="opacity:1" fill="#c6c6c6" d="M 236.5,203.5 C 237.404,204.209 237.737,205.209 237.5,206.5C 237.975,210.143 238.308,213.81 238.5,217.5C 238.471,220.269 237.805,222.603 236.5,224.5C 236.167,223.833 235.833,223.167 235.5,222.5C 236.787,221.129 237.453,219.295 237.5,217C 236.96,212.511 236.626,208.011 236.5,203.5 Z"/></g>
<g><path style="opacity:1" fill="#727272" d="M 237.5,206.5 C 238.268,207.263 238.768,208.263 239,209.5C 239.333,215.5 239.667,221.5 240,227.5C 240.671,228.252 241.504,228.586 242.5,228.5C 241.449,229.222 240.782,230.222 240.5,231.5C 238.805,229.465 237.472,227.132 236.5,224.5C 237.805,222.603 238.471,220.269 238.5,217.5C 238.308,213.81 237.975,210.143 237.5,206.5 Z"/></g>
<g><path style="opacity:1" fill="#7f7f7f" d="M 240.5,202.5 C 241.6,204.277 242.434,206.277 243,208.5C 243.821,215.346 243.654,222.013 242.5,228.5C 242.916,219.716 242.249,211.049 240.5,202.5 Z"/></g>
<g><path style="opacity:1" fill="#d3d3d3" d="M 229.5,220.5 C 230.946,219.387 232.613,219.22 234.5,220C 235.252,220.671 235.586,221.504 235.5,222.5C 234.833,222.167 234.167,221.833 233.5,221.5C 232.432,220.566 231.099,220.232 229.5,220.5 Z"/></g>
<g><path style="opacity:1" fill="#838383" d="M 229.5,220.5 C 231.099,220.232 232.432,220.566 233.5,221.5C 232.5,221.5 231.5,221.5 230.5,221.5C 230.5,222.5 230.5,223.5 230.5,224.5C 229.566,223.432 229.232,222.099 229.5,220.5 Z"/></g>
<g><path style="opacity:1" fill="#6c6c6c" d="M 132.5,219.5 C 132.741,221.898 132.074,223.898 130.5,225.5C 130.259,223.102 130.926,221.102 132.5,219.5 Z"/></g>
<g><path style="opacity:1" fill="#363636" d="M 89.5,112.5 C 87.6504,121.63 86.9838,130.963 87.5,140.5C 87.5,141.833 87.5,143.167 87.5,144.5C 89.9589,144.31 91.6255,145.31 92.5,147.5C 92.5,147.833 92.5,148.167 92.5,148.5C 92.7549,150.967 93.7549,152.967 95.5,154.5C 95.427,156.027 96.0937,157.027 97.5,157.5C 99.6523,159.985 102.319,161.651 105.5,162.5C 105.973,163.906 106.973,164.573 108.5,164.5C 109.93,165.537 111.597,166.204 113.5,166.5C 114.492,166.328 115.158,166.662 115.5,167.5C 116.93,168.537 118.597,169.204 120.5,169.5C 122.102,171.074 124.102,171.741 126.5,171.5C 126.833,171.5 127.167,171.5 127.5,171.5C 128.919,172.451 130.585,172.784 132.5,172.5C 138.319,173.328 144.319,173.828 150.5,174C 152.619,174.342 152.953,175.175 151.5,176.5C 150.209,176.263 149.209,176.596 148.5,177.5C 140.133,177.705 131.8,177.371 123.5,176.5C 121.708,176.634 120.042,176.301 118.5,175.5C 118.027,174.094 117.027,173.427 115.5,173.5C 111.721,172.442 108.054,171.109 104.5,169.5C 103.738,167.738 102.404,166.738 100.5,166.5C 99.4154,164.413 97.7488,163.08 95.5,162.5C 95.2648,161.903 94.7648,161.57 94,161.5C 86.7405,164.084 79.5738,166.751 72.5,169.5C 70.1523,169.592 68.4856,170.592 67.5,172.5C 65.079,172.878 62.7457,173.545 60.5,174.5C 58.5956,174.738 57.2623,175.738 56.5,177.5C 54.5956,177.738 53.2623,178.738 52.5,180.5C 50.5956,180.738 49.2623,181.738 48.5,183.5C 46.9731,183.427 45.9731,184.094 45.5,185.5C 43.9731,185.427 42.9731,186.094 42.5,187.5C 39.5726,188.757 37.2393,190.757 35.5,193.5C 32.027,195.637 29.6936,198.637 28.5,202.5C 27.4415,203.6 26.6082,204.934 26,206.5C 25.5006,211.823 25.334,217.156 25.5,222.5C 25.4095,225.152 26.0762,227.485 27.5,229.5C 28.8333,231.5 30.1667,233.5 31.5,235.5C 32.2623,237.262 33.5956,238.262 35.5,238.5C 37.9479,239.473 40.6146,239.806 43.5,239.5C 47.1576,238.203 48.8242,235.537 48.5,231.5C 49.1174,231.389 49.6174,231.056 50,230.5C 52.0212,222.935 54.5212,215.602 57.5,208.5C 59.2624,207.738 60.2624,206.404 60.5,204.5C 64.9206,201.29 68.9206,197.623 72.5,193.5C 74.7488,192.92 76.4154,191.587 77.5,189.5C 79.0269,189.573 80.0269,188.906 80.5,187.5C 82.0269,187.573 83.0269,186.906 83.5,185.5C 85.4832,185.843 86.8166,185.176 87.5,183.5C 90.1573,183.065 92.4907,182.065 94.5,180.5C 100.472,179.602 106.472,179.602 112.5,180.5C 115.847,181.609 118.847,183.276 121.5,185.5C 121.328,186.492 121.662,187.158 122.5,187.5C 123.36,191.434 123.693,195.434 123.5,199.5C 123.5,200.167 123.167,200.5 122.5,200.5C 120.836,203.159 119.17,205.825 117.5,208.5C 116.094,208.973 115.427,209.973 115.5,211.5C 112.833,213.5 110.5,215.833 108.5,218.5C 107.094,218.973 106.427,219.973 106.5,221.5C 105.094,221.973 104.427,222.973 104.5,224.5C 103.883,224.611 103.383,224.944 103,225.5C 102.136,232.408 102.636,239.075 104.5,245.5C 104.5,247.833 104.5,250.167 104.5,252.5C 104.182,255.481 105.182,257.815 107.5,259.5C 107.833,260.167 108.167,260.833 108.5,261.5C 109.671,262.345 111.005,263.011 112.5,263.5C 116.634,264.485 120.968,264.818 125.5,264.5C 125.5,263.5 125.5,262.5 125.5,261.5C 124.566,253.889 124.233,246.222 124.5,238.5C 125.15,236.565 125.483,234.565 125.5,232.5C 125.505,228.466 125.838,224.466 126.5,220.5C 126.5,219.833 126.5,219.167 126.5,218.5C 128.047,217.232 129.047,215.565 129.5,213.5C 131.262,212.738 132.262,211.404 132.5,209.5C 133.11,208.609 133.443,207.609 133.5,206.5C 135.369,204.966 136.702,202.966 137.5,200.5C 139.262,199.738 140.262,198.404 140.5,196.5C 140.5,195.833 140.833,195.5 141.5,195.5C 142.285,193.626 142.952,191.626 143.5,189.5C 143.833,188.833 144.167,188.167 144.5,187.5C 145.5,187.167 146.167,186.5 146.5,185.5C 148.262,184.738 149.262,183.404 149.5,181.5C 149.833,180.5 150.5,179.833 151.5,179.5C 152.652,178.375 153.652,178.375 154.5,179.5C 153.89,180.391 153.557,181.391 153.5,182.5C 153.567,183.959 153.234,185.292 152.5,186.5C 151.094,186.973 150.427,187.973 150.5,189.5C 149.833,190.833 149.167,192.167 148.5,193.5C 147.094,193.973 146.427,194.973 146.5,196.5C 144.75,197.659 143.75,199.326 143.5,201.5C 141.178,202.802 139.845,204.802 139.5,207.5C 137.412,209.336 136.079,211.669 135.5,214.5C 134.094,214.973 133.427,215.973 133.5,217.5C 133.672,218.492 133.338,219.158 132.5,219.5C 130.926,221.102 130.259,223.102 130.5,225.5C 130.5,228.5 130.5,231.5 130.5,234.5C 129.732,235.263 129.232,236.263 129,237.5C 128.18,244.014 128.347,250.347 129.5,256.5C 129.5,256.833 129.5,257.167 129.5,257.5C 128.984,262.186 130.984,264.519 135.5,264.5C 134.54,269.193 136.207,272.526 140.5,274.5C 140.833,275.5 141.5,276.167 142.5,276.5C 144.569,279.573 147.236,281.906 150.5,283.5C 151.5,285.167 152.833,286.5 154.5,287.5C 154.973,288.906 155.973,289.573 157.5,289.5C 158.29,290.401 159.29,291.068 160.5,291.5C 160.973,292.906 161.973,293.573 163.5,293.5C 164.979,296.046 166.479,296.046 168,293.5C 168.708,294.381 169.542,295.047 170.5,295.5C 172.621,295.675 174.621,295.341 176.5,294.5C 178.016,291.92 177.349,289.92 174.5,288.5C 174.489,286.983 173.823,285.816 172.5,285C 173.094,284.536 173.761,284.369 174.5,284.5C 175.833,285.5 177.167,286.5 178.5,287.5C 179.209,288.404 180.209,288.737 181.5,288.5C 181.806,285.615 181.473,282.948 180.5,280.5C 180.573,278.973 179.906,277.973 178.5,277.5C 178.068,276.29 177.401,275.29 176.5,274.5C 176.573,272.973 175.906,271.973 174.5,271.5C 174.672,270.508 174.338,269.842 173.5,269.5C 173.573,267.973 172.906,266.973 171.5,266.5C 170.833,265.167 170.167,263.833 169.5,262.5C 169.573,260.973 168.906,259.973 167.5,259.5C 166.925,256.088 165.592,253.088 163.5,250.5C 163.634,248.708 163.301,247.042 162.5,245.5C 162.221,240.673 162.887,236.007 164.5,231.5C 167.404,230.386 169.404,228.386 170.5,225.5C 172.558,224.067 174.892,223.4 177.5,223.5C 178.234,224.708 178.567,226.041 178.5,227.5C 168.395,232.161 165.728,239.494 170.5,249.5C 170.5,249.833 170.5,250.167 170.5,250.5C 170.796,252.403 171.463,254.07 172.5,255.5C 172.5,255.833 172.5,256.167 172.5,256.5C 172.427,258.027 173.094,259.027 174.5,259.5C 175.338,259.842 175.672,260.508 175.5,261.5C 175.738,263.404 176.738,264.738 178.5,265.5C 178.821,267.048 179.821,267.715 181.5,267.5C 181.5,266.167 181.5,264.833 181.5,263.5C 181.5,262.833 181.5,262.167 181.5,261.5C 182.906,261.027 183.573,260.027 183.5,258.5C 184.434,257.432 184.768,256.099 184.5,254.5C 181.5,254.5 178.5,254.5 175.5,254.5C 174.833,254.167 174.167,253.833 173.5,253.5C 172.766,252.292 172.433,250.959 172.5,249.5C 173.5,249.5 174.5,249.5 175.5,249.5C 182.087,251.461 189.087,252.128 196.5,251.5C 198.423,254.218 199.756,253.884 200.5,250.5C 200.865,245.906 201.865,241.573 203.5,237.5C 204.234,238.708 204.567,240.041 204.5,241.5C 204.717,246.23 204.383,250.897 203.5,255.5C 203.552,257.903 203.219,260.236 202.5,262.5C 202.5,262.833 202.5,263.167 202.5,263.5C 200.554,264.035 199.554,265.368 199.5,267.5C 195.206,274.432 193.54,282.098 194.5,290.5C 194.833,292.833 196.167,294.167 198.5,294.5C 198.5,295.167 198.833,295.5 199.5,295.5C 204.159,297.166 208.492,296.5 212.5,293.5C 213.262,291.738 214.596,290.738 216.5,290.5C 219.089,289.581 221.089,287.914 222.5,285.5C 222.5,284.833 222.833,284.5 223.5,284.5C 226.647,282.687 228.647,280.02 229.5,276.5C 230.906,276.027 231.573,275.027 231.5,273.5C 232.906,273.027 233.573,272.027 233.5,270.5C 234.924,268.485 235.59,266.152 235.5,263.5C 235.5,262.167 235.5,260.833 235.5,259.5C 236.404,258.791 236.737,257.791 236.5,256.5C 237.648,252.019 237.815,247.352 237,242.5C 236.154,238.612 234.987,234.945 233.5,231.5C 233.573,229.973 232.906,228.973 231.5,228.5C 231.167,227.167 230.833,225.833 230.5,224.5C 230.5,223.5 230.5,222.5 230.5,221.5C 231.5,221.5 232.5,221.5 233.5,221.5C 234.167,221.833 234.833,222.167 235.5,222.5C 235.833,223.167 236.167,223.833 236.5,224.5C 237.472,227.132 238.805,229.465 240.5,231.5C 241.388,234.054 241.721,236.721 241.5,239.5C 241.982,245.66 242.649,251.66 243.5,257.5C 243.842,258.338 244.508,258.672 245.5,258.5C 245.842,259.338 246.508,259.672 247.5,259.5C 250.129,262.631 252.962,265.631 256,268.5C 256.498,271.817 256.665,275.15 256.5,278.5C 255.4,279.605 254.733,280.938 254.5,282.5C 249.838,285.521 244.838,287.187 239.5,287.5C 237.5,287.5 235.5,287.5 233.5,287.5C 233.088,285.027 234.088,283.694 236.5,283.5C 237.222,283.082 237.722,282.416 238,281.5C 240.785,282.907 243.285,282.574 245.5,280.5C 247.434,279.89 249.101,278.89 250.5,277.5C 251.833,275.167 251.833,272.833 250.5,270.5C 248.188,267.521 245.521,264.854 242.5,262.5C 240.577,265.521 239.577,268.854 239.5,272.5C 238.094,272.973 237.427,273.973 237.5,275.5C 236.168,277.138 234.834,278.804 233.5,280.5C 232.167,282.5 230.833,284.5 229.5,286.5C 228.094,286.973 227.427,287.973 227.5,289.5C 226.833,289.5 226.5,289.833 226.5,290.5C 224.251,291.08 222.585,292.413 221.5,294.5C 217.879,296.142 214.546,298.142 211.5,300.5C 207.566,301.36 203.566,301.693 199.5,301.5C 197.544,300.508 195.544,299.508 193.5,298.5C 192.833,298.167 192.167,297.833 191.5,297.5C 191.5,296.833 191.5,296.167 191.5,295.5C 190.253,288.52 190.253,281.52 191.5,274.5C 193.076,271.504 192.743,268.838 190.5,266.5C 190.167,266.5 189.833,266.5 189.5,266.5C 189.628,264.345 189.128,262.345 188,260.5C 186.961,261.244 186.461,262.244 186.5,263.5C 183.031,267.877 182.698,272.544 185.5,277.5C 186.373,281.768 186.706,286.102 186.5,290.5C 186.443,291.609 186.11,292.609 185.5,293.5C 184.197,295.142 182.864,296.809 181.5,298.5C 176.692,300.242 171.692,300.909 166.5,300.5C 164.233,299.577 161.9,298.744 159.5,298C 150.475,297.716 141.475,297.216 132.5,296.5C 131.205,295.512 129.872,294.512 128.5,293.5C 127.833,292.167 126.833,291.167 125.5,290.5C 125.443,289.391 125.11,288.391 124.5,287.5C 123.676,284.236 123.342,280.902 123.5,277.5C 123.5,277.167 123.5,276.833 123.5,276.5C 124.906,276.027 125.573,275.027 125.5,273.5C 127.912,273.306 128.912,271.973 128.5,269.5C 122.213,268.854 115.88,267.854 109.5,266.5C 108.508,266.672 107.842,266.338 107.5,265.5C 105.649,263.224 103.982,260.891 102.5,258.5C 102.34,256.847 101.674,255.514 100.5,254.5C 99.096,248.454 98.096,242.454 97.5,236.5C 97.2941,232.102 97.6274,227.768 98.5,223.5C 98.3284,222.508 98.6618,221.842 99.5,221.5C 101.262,220.738 102.262,219.404 102.5,217.5C 105.219,215.781 107.219,213.447 108.5,210.5C 110.587,209.415 111.92,207.749 112.5,205.5C 114.914,204.089 116.581,202.089 117.5,199.5C 117.5,196.5 117.5,193.5 117.5,190.5C 117.573,188.973 116.906,187.973 115.5,187.5C 114.817,185.824 113.483,185.157 111.5,185.5C 107.11,183.627 102.444,183.127 97.5,184C 96.944,184.383 96.6107,184.883 96.5,185.5C 92.5799,186.127 89.2466,187.793 86.5,190.5C 83.8021,190.845 81.8021,192.178 80.5,194.5C 78.2512,195.08 76.5846,196.413 75.5,198.5C 72.9108,199.419 70.9108,201.086 69.5,203.5C 67.1667,203.833 65.8333,205.167 65.5,207.5C 61.6847,210.127 59.6847,213.794 59.5,218.5C 58.0937,218.973 57.427,219.973 57.5,221.5C 56.7814,223.764 56.448,226.097 56.5,228.5C 54.7549,230.033 53.7549,232.033 53.5,234.5C 52.8902,235.391 52.5569,236.391 52.5,237.5C 50.5,240.167 48.1667,242.5 45.5,244.5C 42.0381,245.482 38.3714,245.815 34.5,245.5C 34.0269,244.094 33.0269,243.427 31.5,243.5C 29.8333,241.167 27.8333,239.167 25.5,237.5C 24.5272,235.851 23.5272,234.184 22.5,232.5C 21.962,230.883 21.6287,229.216 21.5,227.5C 20.2427,219.813 20.2427,212.147 21.5,204.5C 21.5,204.167 21.5,203.833 21.5,203.5C 22.9063,203.027 23.573,202.027 23.5,200.5C 23.5,199.833 23.5,199.167 23.5,198.5C 24.5,198.167 25.1667,197.5 25.5,196.5C 26.9063,196.027 27.573,195.027 27.5,193.5C 31.3971,190.391 35.0638,187.057 38.5,183.5C 40.4044,183.262 41.7377,182.262 42.5,180.5C 46.7321,178.6 50.3988,175.933 53.5,172.5C 55.8477,172.408 57.5144,171.408 58.5,169.5C 61.721,169.104 64.3877,167.771 66.5,165.5C 67.1667,165.5 67.8333,165.5 68.5,165.5C 70.153,165.34 71.4863,164.674 72.5,163.5C 78.7699,161.74 85.1033,160.407 91.5,159.5C 91.539,156.911 90.539,154.911 88.5,153.5C 85.9683,151.317 84.3017,148.65 83.5,145.5C 83.5,136.5 83.5,127.5 83.5,118.5C 84.1667,117.167 84.8333,115.833 85.5,114.5C 86.4918,112.544 87.4918,110.544 88.5,108.5C 89.1174,108.389 89.6174,108.056 90,107.5C 90.3845,109.197 90.2178,110.863 89.5,112.5 Z"/></g>
<g><path style="opacity:1" fill="#929292" d="M 106.5,221.5 C 106.573,223.027 105.906,224.027 104.5,224.5C 104.427,222.973 105.094,221.973 106.5,221.5 Z"/></g>
<g><path style="opacity:1" fill="#acacac" d="M 177.5,223.5 C 174.892,223.4 172.558,224.067 170.5,225.5C 172.265,222.551 174.598,221.885 177.5,223.5 Z"/></g>
<g><path style="opacity:1" fill="#8d8d8d" d="M 108.5,218.5 C 108.5,218.833 108.5,219.167 108.5,219.5C 108.167,220.5 107.5,221.167 106.5,221.5C 106.427,219.973 107.094,218.973 108.5,218.5 Z"/></g>
<g><path style="opacity:1" fill="#878787" d="M 59.5,218.5 C 59.4431,219.609 59.1098,220.609 58.5,221.5C 58.1667,221.5 57.8333,221.5 57.5,221.5C 57.427,219.973 58.0937,218.973 59.5,218.5 Z"/></g>
<g><path style="opacity:1" fill="#878787" d="M 102.5,217.5 C 102.262,219.404 101.262,220.738 99.5,221.5C 99.7376,219.596 100.738,218.262 102.5,217.5 Z"/></g>
<g><path style="opacity:1" fill="#c5c5c5" d="M 115.5,211.5 C 113.906,214.764 111.573,217.431 108.5,219.5C 108.5,219.167 108.5,218.833 108.5,218.5C 110.5,215.833 112.833,213.5 115.5,211.5 Z"/></g>
<g><path style="opacity:1" fill="#b1b1b1" d="M 129.5,212.5 C 129.5,212.833 129.5,213.167 129.5,213.5C 129.047,215.565 128.047,217.232 126.5,218.5C 126.755,216.033 127.755,214.033 129.5,212.5 Z"/></g>
<g><path style="opacity:1" fill="#6e6e6e" d="M 108.5,210.5 C 107.219,213.447 105.219,215.781 102.5,217.5C 103.81,214.527 105.81,212.193 108.5,210.5 Z"/></g>
<g><path style="opacity:1" fill="#c8c8c8" d="M 28.5,202.5 C 26.7952,209.014 26.1286,215.681 26.5,222.5C 26.1667,222.5 25.8333,222.5 25.5,222.5C 25.334,217.156 25.5006,211.823 26,206.5C 26.6082,204.934 27.4415,203.6 28.5,202.5 Z"/></g>
<g><path style="opacity:1" fill="#666666" d="M 132.5,209.5 C 132.262,211.404 131.262,212.738 129.5,213.5C 129.5,213.167 129.5,212.833 129.5,212.5C 129.833,211.833 130.167,211.167 130.5,210.5C 131.167,210.167 131.833,209.833 132.5,209.5 Z"/></g>
<g><path style="opacity:1" fill="#9d9d9d" d="M 57.5,208.5 C 54.5212,215.602 52.0212,222.935 50,230.5C 49.6174,231.056 49.1174,231.389 48.5,231.5C 50.3573,224.427 52.5239,217.427 55,210.5C 55.7083,209.619 56.5416,208.953 57.5,208.5 Z"/></g>
<g><path style="opacity:1" fill="#a4a4a4" d="M 117.5,208.5 C 117.573,210.027 116.906,211.027 115.5,211.5C 115.427,209.973 116.094,208.973 117.5,208.5 Z"/></g>
<g><path style="opacity:1" fill="#9c9c9c" d="M 133.5,206.5 C 133.443,207.609 133.11,208.609 132.5,209.5C 131.833,209.833 131.167,210.167 130.5,210.5C 130.738,208.596 131.738,207.262 133.5,206.5 Z"/></g>
<g><path style="opacity:1" fill="#858585" d="M 112.5,205.5 C 111.92,207.749 110.587,209.415 108.5,210.5C 109.08,208.251 110.413,206.585 112.5,205.5 Z"/></g>
<g><path style="opacity:1" fill="#adadad" d="M 65.5,207.5 C 63.4986,211.176 61.4986,214.842 59.5,218.5C 59.6847,213.794 61.6847,210.127 65.5,207.5 Z"/></g>
<g><path style="opacity:1" fill="#6b6b6b" d="M 137.5,200.5 C 136.702,202.966 135.369,204.966 133.5,206.5C 133.845,203.802 135.178,201.802 137.5,200.5 Z"/></g>
<g><path style="opacity:1" fill="#9e9e9e" d="M 122.5,200.5 C 122.348,204.141 120.682,206.807 117.5,208.5C 119.17,205.825 120.836,203.159 122.5,200.5 Z"/></g>
<g><path style="opacity:1" fill="#7b7b7b" d="M 60.5,204.5 C 60.2624,206.404 59.2624,207.738 57.5,208.5C 57.7376,206.596 58.7376,205.262 60.5,204.5 Z"/></g>
<g><path style="opacity:1" fill="#a1a1a1" d="M 69.5,203.5 C 68.5,205.167 67.1667,206.5 65.5,207.5C 65.8333,205.167 67.1667,203.833 69.5,203.5 Z"/></g>
<g><path style="opacity:1" fill="#707070" d="M 117.5,199.5 C 116.581,202.089 114.914,204.089 112.5,205.5C 113.419,202.911 115.086,200.911 117.5,199.5 Z"/></g>
<g><path style="opacity:1" fill="#b2b2b2" d="M 75.5,198.5 C 74.0892,200.914 72.0892,202.581 69.5,203.5C 70.9108,201.086 72.9108,199.419 75.5,198.5 Z"/></g>
<g><path style="opacity:1" fill="#797979" d="M 72.5,193.5 C 68.9206,197.623 64.9206,201.29 60.5,204.5C 61.2026,202.284 62.5359,200.451 64.5,199C 67.0652,196.92 69.7318,195.087 72.5,193.5 Z"/></g>
<g><path style="opacity:1" fill="#b5b5b5" d="M 35.5,193.5 C 33.479,196.841 31.1457,199.841 28.5,202.5C 29.6936,198.637 32.027,195.637 35.5,193.5 Z"/></g>
<g><path style="opacity:1" fill="#787878" d="M 139.5,196.5 C 139.833,196.5 140.167,196.5 140.5,196.5C 140.262,198.404 139.262,199.738 137.5,200.5C 137.733,198.938 138.4,197.605 139.5,196.5 Z"/></g>
<g><path style="opacity:1" fill="#b2b2b2" d="M 80.5,194.5 C 79.4154,196.587 77.7488,197.92 75.5,198.5C 76.5846,196.413 78.2512,195.08 80.5,194.5 Z"/></g>
<g><path style="opacity:1" fill="#c0c0c0" d="M 139.5,191.5 C 140.167,192.833 140.833,194.167 141.5,195.5C 140.833,195.5 140.5,195.833 140.5,196.5C 140.167,196.5 139.833,196.5 139.5,196.5C 137.078,194.952 137.078,193.286 139.5,191.5 Z"/></g>
<g><path style="opacity:1" fill="#737373" d="M 143.5,189.5 C 142.952,191.626 142.285,193.626 141.5,195.5C 140.833,194.167 140.167,192.833 139.5,191.5C 140.605,190.4 141.938,189.733 143.5,189.5 Z"/></g>
<g><path style="opacity:1" fill="#9e9e9e" d="M 86.5,190.5 C 84.9663,192.369 82.9663,193.702 80.5,194.5C 81.8021,192.178 83.8021,190.845 86.5,190.5 Z"/></g>
<g><path style="opacity:1" fill="#777777" d="M 77.5,189.5 C 76.4154,191.587 74.7488,192.92 72.5,193.5C 73.5846,191.413 75.2512,190.08 77.5,189.5 Z"/></g>
<g><path style="opacity:1" fill="#b9b9b9" d="M 122.5,187.5 C 123.117,187.611 123.617,187.944 124,188.5C 124.81,192.358 124.643,196.024 123.5,199.5C 123.693,195.434 123.36,191.434 122.5,187.5 Z"/></g>
<g><path style="opacity:1" fill="#a6a6a6" d="M 42.5,187.5 C 40.7607,190.243 38.4274,192.243 35.5,193.5C 37.2393,190.757 39.5726,188.757 42.5,187.5 Z"/></g>
<g><path style="opacity:1" fill="#8f8f8f" d="M 115.5,187.5 C 116.906,187.973 117.573,188.973 117.5,190.5C 116.094,190.027 115.427,189.027 115.5,187.5 Z"/></g>
<g><path style="opacity:1" fill="#898989" d="M 80.5,187.5 C 80.0269,188.906 79.0269,189.573 77.5,189.5C 77.9731,188.094 78.9731,187.427 80.5,187.5 Z"/></g>
<g><path style="opacity:1" fill="#a3a3a3" d="M 96.5,185.5 C 96.8333,185.5 97.1667,185.5 97.5,185.5C 94.2597,187.951 90.5931,189.618 86.5,190.5C 89.2466,187.793 92.5799,186.127 96.5,185.5 Z"/></g>
<g><path style="opacity:1" fill="#b0b0b0" d="M 146.5,184.5 C 146.5,184.833 146.5,185.167 146.5,185.5C 146.167,186.5 145.5,187.167 144.5,187.5C 144.427,185.973 145.094,184.973 146.5,184.5 Z"/></g>
<g><path style="opacity:1" fill="#8f8f8f" d="M 83.5,185.5 C 83.0269,186.906 82.0269,187.573 80.5,187.5C 80.9731,186.094 81.9731,185.427 83.5,185.5 Z"/></g>
<g><path style="opacity:1" fill="#9d9d9d" d="M 45.5,185.5 C 45.0269,186.906 44.0269,187.573 42.5,187.5C 42.9731,186.094 43.9731,185.427 45.5,185.5 Z"/></g>
<g><path style="opacity:1" fill="#676767" d="M 111.5,185.5 C 113.483,185.157 114.817,185.824 115.5,187.5C 113.847,187.34 112.514,186.674 111.5,185.5 Z"/></g>
<g><path style="opacity:1" fill="#747474" d="M 87.5,183.5 C 86.8166,185.176 85.4832,185.843 83.5,185.5C 84.5137,184.326 85.847,183.66 87.5,183.5 Z"/></g>
<g><path style="opacity:1" fill="#ababab" d="M 48.5,183.5 C 48.0269,184.906 47.0269,185.573 45.5,185.5C 45.9731,184.094 46.9731,183.427 48.5,183.5 Z"/></g>
<g><path style="opacity:1" fill="#787878" d="M 111.5,185.5 C 106.833,185.5 102.167,185.5 97.5,185.5C 97.1667,185.5 96.8333,185.5 96.5,185.5C 96.6107,184.883 96.944,184.383 97.5,184C 102.444,183.127 107.11,183.627 111.5,185.5 Z"/></g>
<g><path style="opacity:1" fill="#646464" d="M 148.5,181.5 C 148.833,181.5 149.167,181.5 149.5,181.5C 149.262,183.404 148.262,184.738 146.5,185.5C 146.5,185.167 146.5,184.833 146.5,184.5C 147.167,183.5 147.833,182.5 148.5,181.5 Z"/></g>
<g><path style="opacity:1" fill="#8e8e8e" d="M 94.5,180.5 C 92.4907,182.065 90.1573,183.065 87.5,183.5C 89.1757,181.166 91.509,180.166 94.5,180.5 Z"/></g>
<g><path style="opacity:1" fill="#ababab" d="M 52.5,180.5 C 51.7377,182.262 50.4044,183.262 48.5,183.5C 49.2623,181.738 50.5956,180.738 52.5,180.5 Z"/></g>
<g><path style="opacity:1" fill="#999999" d="M 112.5,180.5 C 112.5,180.167 112.5,179.833 112.5,179.5C 116.789,179.796 119.789,181.796 121.5,185.5C 118.847,183.276 115.847,181.609 112.5,180.5 Z"/></g>
<g><path style="opacity:1" fill="#666666" d="M 98.5,178.5 C 103.167,178.833 107.833,179.167 112.5,179.5C 112.5,179.833 112.5,180.167 112.5,180.5C 106.472,179.602 100.472,179.602 94.5,180.5C 95.5137,179.326 96.847,178.66 98.5,178.5 Z"/></g>
<g><path style="opacity:1" fill="#868686" d="M 60.5,174.5 C 59.7377,176.262 58.4044,177.262 56.5,177.5C 57.2623,175.738 58.5956,174.738 60.5,174.5 Z"/></g>
<g><path style="opacity:1" fill="#a6a6a6" d="M 115.5,173.5 C 117.027,173.427 118.027,174.094 118.5,175.5C 116.973,175.573 115.973,174.906 115.5,173.5 Z"/></g>
<g><path style="opacity:1" fill="#a6a6a6" d="M 72.5,169.5 C 71.3406,171.25 69.674,172.25 67.5,172.5C 68.4856,170.592 70.1523,169.592 72.5,169.5 Z"/></g>
<g><path style="opacity:1" fill="#9c9c9c" d="M 95.5,162.5 C 88.0616,165.423 80.3949,167.756 72.5,169.5C 79.5738,166.751 86.7405,164.084 94,161.5C 94.7648,161.57 95.2648,161.903 95.5,162.5 Z"/></g>
<g><path style="opacity:1" fill="#747474" d="M 100.5,166.5 C 102.404,166.738 103.738,167.738 104.5,169.5C 102.596,169.262 101.262,168.262 100.5,166.5 Z"/></g>
<g><path style="opacity:1" fill="#5f5f5f" d="M 95.5,162.5 C 97.7488,163.08 99.4154,164.413 100.5,166.5C 98.2512,165.92 96.5846,164.587 95.5,162.5 Z"/></g>
<g><path style="opacity:1" fill="#808080" d="M 25.5,222.5 C 25.8333,222.5 26.1667,222.5 26.5,222.5C 26.9926,224.806 27.3259,227.139 27.5,229.5C 26.0762,227.485 25.4095,225.152 25.5,222.5 Z"/></g>
<g><path style="opacity:1" fill="#bcbcbc" d="M 177.5,223.5 C 178.586,223.62 179.253,224.287 179.5,225.5C 179.457,226.416 179.124,227.083 178.5,227.5C 178.567,226.041 178.234,224.708 177.5,223.5 Z"/></g>
<g><path style="opacity:1" fill="#a7a7a7" d="M 126.5,220.5 C 125.838,224.466 125.505,228.466 125.5,232.5C 125.167,232.5 124.833,232.5 124.5,232.5C 124.083,228.183 124.75,224.183 126.5,220.5 Z"/></g>
<g><path style="opacity:1" fill="#bfbfbf" d="M 19.5,224.5 C 20.1667,225.5 20.8333,226.5 21.5,227.5C 21.6287,229.216 21.962,230.883 22.5,232.5C 20.3455,230.383 19.3455,227.716 19.5,224.5 Z"/></g>
<g><path style="opacity:1" fill="#afafaf" d="M 57.5,221.5 C 57.8333,221.5 58.1667,221.5 58.5,221.5C 58.5905,224.152 57.9238,226.485 56.5,228.5C 56.448,226.097 56.7814,223.764 57.5,221.5 Z"/></g>
<g><path style="opacity:1" fill="#a9a9a9" d="M 178.5,227.5 C 176.065,230.438 173.399,233.272 170.5,236C 169.372,240.487 169.372,244.987 170.5,249.5C 165.728,239.494 168.395,232.161 178.5,227.5 Z"/></g>
<g><path style="opacity:1" fill="#848484" d="M 170.5,225.5 C 169.404,228.386 167.404,230.386 164.5,231.5C 164.369,230.761 164.536,230.094 165,229.5C 167.034,228.279 168.867,226.945 170.5,225.5 Z"/></g>
<g><path style="opacity:1" fill="#a3a3a3" d="M 231.5,228.5 C 232.906,228.973 233.573,229.973 233.5,231.5C 232.094,231.027 231.427,230.027 231.5,228.5 Z"/></g>
<g><path style="opacity:1" fill="#adadad" d="M 98.5,223.5 C 97.6274,227.768 97.2941,232.102 97.5,236.5C 97.1667,236.5 96.8333,236.5 96.5,236.5C 95.9031,231.706 96.5698,227.373 98.5,223.5 Z"/></g>
<g><path style="opacity:1" fill="#949494" d="M 56.5,228.5 C 56.2451,230.967 55.2451,232.967 53.5,234.5C 53.7549,232.033 54.7549,230.033 56.5,228.5 Z"/></g>
<g><path style="opacity:1" fill="#7b7b7b" d="M 48.5,231.5 C 48.8242,235.537 47.1576,238.203 43.5,239.5C 45.5392,237.021 47.2059,234.354 48.5,231.5 Z"/></g>
<g><path style="opacity:1" fill="#afafaf" d="M 31.5,235.5 C 33.4044,235.738 34.7377,236.738 35.5,238.5C 33.5956,238.262 32.2623,237.262 31.5,235.5 Z"/></g>
<g><path style="opacity:1" fill="#7b7b7b" d="M 124.5,232.5 C 124.833,232.5 125.167,232.5 125.5,232.5C 125.483,234.565 125.15,236.565 124.5,238.5C 124.167,238.5 123.833,238.5 123.5,238.5C 123.517,236.435 123.85,234.435 124.5,232.5 Z"/></g>
<g><path style="opacity:1" fill="#bcbcbc" d="M 164.5,231.5 C 162.887,236.007 162.221,240.673 162.5,245.5C 161.357,242.024 161.19,238.358 162,234.5C 162.377,233.058 163.21,232.058 164.5,231.5 Z"/></g>
<g><path style="opacity:1" fill="#9e9e9e" d="M 25.5,237.5 C 27.8333,239.167 29.8333,241.167 31.5,243.5C 28.5,242.5 26.5,240.5 25.5,237.5 Z"/></g>
<g><path style="opacity:1" fill="#afafaf" d="M 203.5,236.5 C 205.213,237.635 205.88,239.302 205.5,241.5C 205.167,241.5 204.833,241.5 204.5,241.5C 204.567,240.041 204.234,238.708 203.5,237.5C 203.5,237.167 203.5,236.833 203.5,236.5 Z"/></g>
<g><path style="opacity:1" fill="#afafaf" d="M 104.5,224.5 C 104.5,231.5 104.5,238.5 104.5,245.5C 102.636,239.075 102.136,232.408 103,225.5C 103.383,224.944 103.883,224.611 104.5,224.5 Z"/></g>
<g><path style="opacity:1" fill="#9c9c9c" d="M 52.5,237.5 C 51.7963,241.537 49.463,243.87 45.5,244.5C 48.1667,242.5 50.5,240.167 52.5,237.5 Z"/></g>
<g><path style="opacity:1" fill="#4f4f4f" d="M 203.5,236.5 C 203.5,236.833 203.5,237.167 203.5,237.5C 201.865,241.573 200.865,245.906 200.5,250.5C 200.818,245.968 200.485,241.634 199.5,237.5C 199.632,232.561 200.965,232.228 203.5,236.5 Z"/></g>
<g><path style="opacity:1" fill="#9e9e9e" d="M 31.5,243.5 C 33.0269,243.427 34.0269,244.094 34.5,245.5C 32.9731,245.573 31.9731,244.906 31.5,243.5 Z"/></g>
<g><path style="opacity:1" fill="#bfbfbf" d="M 96.5,236.5 C 96.8333,236.5 97.1667,236.5 97.5,236.5C 98.096,242.454 99.096,248.454 100.5,254.5C 98.8828,252.879 97.7162,250.879 97,248.5C 96.5012,244.514 96.3345,240.514 96.5,236.5 Z"/></g>
<g><path style="opacity:1" fill="#616161" d="M 123.5,238.5 C 123.833,238.5 124.167,238.5 124.5,238.5C 124.233,246.222 124.566,253.889 125.5,261.5C 125.167,261.5 124.833,261.5 124.5,261.5C 122.306,253.827 121.973,246.16 123.5,238.5 Z"/></g>
<g><path style="opacity:1" fill="#949494" d="M 199.5,237.5 C 200.485,241.634 200.818,245.968 200.5,250.5C 199.756,253.884 198.423,254.218 196.5,251.5C 197.5,251.5 198.5,251.5 199.5,251.5C 199.5,246.833 199.5,242.167 199.5,237.5 Z"/></g>
<g><path style="opacity:1" fill="#646464" d="M 204.5,241.5 C 204.833,241.5 205.167,241.5 205.5,241.5C 205.774,246.263 205.441,250.93 204.5,255.5C 204.167,255.5 203.833,255.5 203.5,255.5C 204.383,250.897 204.717,246.23 204.5,241.5 Z"/></g>
<g><path style="opacity:1" fill="#cfcfcf" d="M 243.5,245.5 C 244.22,249.73 244.887,254.063 245.5,258.5C 244.508,258.672 243.842,258.338 243.5,257.5C 243.5,253.5 243.5,249.5 243.5,245.5 Z"/></g>
<g><path style="opacity:1" fill="#929292" d="M 130.5,234.5 C 129.65,241.799 129.317,249.132 129.5,256.5C 128.347,250.347 128.18,244.014 129,237.5C 129.232,236.263 129.732,235.263 130.5,234.5 Z"/></g>
<g><path style="opacity:1" fill="#808080" d="M 233.5,231.5 C 234.987,234.945 236.154,238.612 237,242.5C 237.815,247.352 237.648,252.019 236.5,256.5C 236.563,248.029 235.563,239.696 233.5,231.5 Z"/></g>
<g><path style="opacity:1" fill="#848484" d="M 241.5,239.5 C 243.074,241.102 243.741,243.102 243.5,245.5C 243.5,249.5 243.5,253.5 243.5,257.5C 242.649,251.66 241.982,245.66 241.5,239.5 Z"/></g>
<g><path style="opacity:1" fill="#757575" d="M 175.5,249.5 C 182.747,249.112 189.747,249.779 196.5,251.5C 189.087,252.128 182.087,251.461 175.5,249.5 Z"/></g>
<g><path style="opacity:1" fill="#cdcdcd" d="M 104.5,252.5 C 106.536,254.206 107.536,256.539 107.5,259.5C 105.182,257.815 104.182,255.481 104.5,252.5 Z"/></g>
<g><path style="opacity:1" fill="#8f8f8f" d="M 172.5,249.5 C 172.433,250.959 172.766,252.292 173.5,253.5C 172.662,253.842 172.328,254.508 172.5,255.5C 171.463,254.07 170.796,252.403 170.5,250.5C 171.167,250.167 171.833,249.833 172.5,249.5 Z"/></g>
<g><path style="opacity:1" fill="#727272" d="M 175.5,254.5 C 178.5,254.5 181.5,254.5 184.5,254.5C 184.768,256.099 184.434,257.432 183.5,258.5C 183.5,257.5 183.5,256.5 183.5,255.5C 182.167,255.5 180.833,255.5 179.5,255.5C 177.901,255.768 176.568,255.434 175.5,254.5 Z"/></g>
<g><path style="opacity:1" fill="#a0a0a0" d="M 163.5,250.5 C 165.592,253.088 166.925,256.088 167.5,259.5C 164.835,257.165 163.502,254.165 163.5,250.5 Z"/></g>
<g><path style="opacity:1" fill="#f0f0f0" d="M 173.5,253.5 C 174.167,253.833 174.833,254.167 175.5,254.5C 176.568,255.434 177.901,255.768 179.5,255.5C 180.209,256.404 181.209,256.737 182.5,256.5C 182.371,258.216 182.038,259.883 181.5,261.5C 181.5,262.167 181.5,262.833 181.5,263.5C 180.778,264.551 179.778,265.218 178.5,265.5C 178.262,263.596 177.262,262.262 175.5,261.5C 175.672,260.508 175.338,259.842 174.5,259.5C 174.573,257.973 173.906,256.973 172.5,256.5C 172.5,256.167 172.5,255.833 172.5,255.5C 172.328,254.508 172.662,253.842 173.5,253.5 Z"/></g>
<g><path style="opacity:1" fill="#636363" d="M 197.5,258.5 C 197.209,257.351 196.376,256.684 195,256.5C 193.624,256.684 192.791,257.351 192.5,258.5C 191.596,257.791 191.263,256.791 191.5,255.5C 193.833,255.5 196.167,255.5 198.5,255.5C 198.737,256.791 198.404,257.791 197.5,258.5 Z"/></g>
<g><path style="opacity:1" fill="#bcbcbc" d="M 100.5,254.5 C 101.674,255.514 102.34,256.847 102.5,258.5C 100.824,257.817 100.157,256.483 100.5,254.5 Z"/></g>
<g><path style="opacity:1" fill="#6b6b6b" d="M 172.5,256.5 C 173.906,256.973 174.573,257.973 174.5,259.5C 173.094,259.027 172.427,258.027 172.5,256.5 Z"/></g>
<g><path style="opacity:1" fill="#cbcbcb" d="M 197.5,258.5 C 197.5,258.833 197.5,259.167 197.5,259.5C 196.295,261.138 194.962,261.471 193.5,260.5C 193.167,259.833 192.833,259.167 192.5,258.5C 192.791,257.351 193.624,256.684 195,256.5C 196.376,256.684 197.209,257.351 197.5,258.5 Z"/></g>
<g><path style="opacity:1" fill="#afafaf" d="M 179.5,255.5 C 180.833,255.5 182.167,255.5 183.5,255.5C 183.5,256.5 183.5,257.5 183.5,258.5C 183.573,260.027 182.906,261.027 181.5,261.5C 182.038,259.883 182.371,258.216 182.5,256.5C 181.209,256.737 180.209,256.404 179.5,255.5 Z"/></g>
<g><path style="opacity:1" fill="#9a9a9a" d="M 247.5,259.5 C 251.067,261.557 254.234,264.223 257,267.5C 257.499,271.152 257.665,274.818 257.5,278.5C 257.167,278.5 256.833,278.5 256.5,278.5C 256.665,275.15 256.498,271.817 256,268.5C 252.962,265.631 250.129,262.631 247.5,259.5 Z"/></g>
<g><path style="opacity:1" fill="#7d7d7d" d="M 167.5,259.5 C 168.906,259.973 169.573,260.973 169.5,262.5C 168.094,262.027 167.427,261.027 167.5,259.5 Z"/></g>
<g><path style="opacity:1" fill="#7c7c7c" d="M 197.5,259.5 C 196.228,263.861 194.895,264.195 193.5,260.5C 194.962,261.471 196.295,261.138 197.5,259.5 Z"/></g>
<g><path style="opacity:1" fill="#d0d0d0" d="M 203.5,255.5 C 203.833,255.5 204.167,255.5 204.5,255.5C 205.01,258.388 204.344,260.721 202.5,262.5C 203.219,260.236 203.552,257.903 203.5,255.5 Z"/></g>
<g><path style="opacity:1" fill="#aeaeae" d="M 102.5,258.5 C 103.982,260.891 105.649,263.224 107.5,265.5C 104.231,264.44 102.565,262.107 102.5,258.5 Z"/></g>
<g><path style="opacity:1" fill="#cecece" d="M 108.5,261.5 C 112.36,261.808 116.026,262.475 119.5,263.5C 117.167,263.5 114.833,263.5 112.5,263.5C 111.005,263.011 109.671,262.345 108.5,261.5 Z"/></g>
<g><path style="opacity:1" fill="#868686" d="M 129.5,257.5 C 130.725,258.937 131.725,260.604 132.5,262.5C 133.325,263.386 134.325,263.719 135.5,263.5C 135.5,263.833 135.5,264.167 135.5,264.5C 130.984,264.519 128.984,262.186 129.5,257.5 Z"/></g>
<g><path style="opacity:1" fill="#bcbcbc" d="M 189.5,266.5 C 188.9,265.1 187.9,264.1 186.5,263.5C 186.461,262.244 186.961,261.244 188,260.5C 189.128,262.345 189.628,264.345 189.5,266.5 Z"/></g>
<g><path style="opacity:1" fill="#999999" d="M 124.5,261.5 C 124.833,261.5 125.167,261.5 125.5,261.5C 125.5,262.5 125.5,263.5 125.5,264.5C 120.968,264.818 116.634,264.485 112.5,263.5C 114.833,263.5 117.167,263.5 119.5,263.5C 121.781,263.923 123.448,263.256 124.5,261.5 Z"/></g>
<g><path style="opacity:1" fill="#6e6e6e" d="M 175.5,261.5 C 177.262,262.262 178.262,263.596 178.5,265.5C 176.738,264.738 175.738,263.404 175.5,261.5 Z"/></g>
<g><path style="opacity:1" fill="#eaeaea" d="M 250.5,270.5 C 250.158,271.338 249.492,271.672 248.5,271.5C 247.292,270.766 245.959,270.433 244.5,270.5C 243.115,271.947 243.448,272.947 245.5,273.5C 246.167,273.5 246.833,273.5 247.5,273.5C 248.5,274.833 249.5,276.167 250.5,277.5C 249.101,278.89 247.434,279.89 245.5,280.5C 243.143,280.663 240.81,280.497 238.5,280C 237.62,278.644 237.286,277.144 237.5,275.5C 238.906,275.027 239.573,274.027 239.5,272.5C 239.577,268.854 240.577,265.521 242.5,262.5C 245.521,264.854 248.188,267.521 250.5,270.5 Z"/></g>
<g><path style="opacity:1" fill="#eeeeee" d="M 186.5,263.5 C 187.9,264.1 188.9,265.1 189.5,266.5C 189.833,266.5 190.167,266.5 190.5,266.5C 190.448,270.198 190.114,273.865 189.5,277.5C 189.5,277.833 189.5,278.167 189.5,278.5C 188.833,279.167 188.167,279.833 187.5,280.5C 187.573,278.973 186.906,277.973 185.5,277.5C 182.698,272.544 183.031,267.877 186.5,263.5 Z"/></g>
<g><path style="opacity:1" fill="#a9a9a9" d="M 235.5,259.5 C 235.5,260.833 235.5,262.167 235.5,263.5C 234.833,264.5 234.167,265.5 233.5,266.5C 233.41,263.848 234.076,261.515 235.5,259.5 Z"/></g>
<g><path style="opacity:1" fill="#cbcbcb" d="M 135.5,263.5 C 136.906,267.214 138.573,270.881 140.5,274.5C 136.207,272.526 134.54,269.193 135.5,264.5C 135.5,264.167 135.5,263.833 135.5,263.5 Z"/></g>
<g><path style="opacity:1" fill="#7a7a7a" d="M 181.5,263.5 C 181.5,264.833 181.5,266.167 181.5,267.5C 179.821,267.715 178.821,267.048 178.5,265.5C 179.778,265.218 180.778,264.551 181.5,263.5 Z"/></g>
<g><path style="opacity:1" fill="#b1b1b1" d="M 202.5,263.5 C 202.008,265.819 201.008,267.819 199.5,269.5C 199.5,268.833 199.5,268.167 199.5,267.5C 199.554,265.368 200.554,264.035 202.5,263.5 Z"/></g>
<g><path style="opacity:1" fill="#555555" d="M 235.5,263.5 C 235.59,266.152 234.924,268.485 233.5,270.5C 233.5,269.167 233.5,267.833 233.5,266.5C 234.167,265.5 234.833,264.5 235.5,263.5 Z"/></g>
<g><path style="opacity:1" fill="#6a6a6a" d="M 109.5,266.5 C 115.88,267.854 122.213,268.854 128.5,269.5C 125.5,269.5 122.5,269.5 119.5,269.5C 115.525,270.142 112.192,269.142 109.5,266.5 Z"/></g>
<g><path style="opacity:1" fill="#919191" d="M 171.5,266.5 C 172.906,266.973 173.573,267.973 173.5,269.5C 172.094,269.027 171.427,268.027 171.5,266.5 Z"/></g>
<g><path style="opacity:1" fill="#979797" d="M 119.5,269.5 C 122.5,269.5 125.5,269.5 128.5,269.5C 128.912,271.973 127.912,273.306 125.5,273.5C 125.953,272.542 126.619,271.708 127.5,271C 124.635,270.817 121.969,270.317 119.5,269.5 Z"/></g>
<g><path style="opacity:1" fill="#afafaf" d="M 244.5,270.5 C 244.557,271.609 244.89,272.609 245.5,273.5C 243.448,272.947 243.115,271.947 244.5,270.5 Z"/></g>
<g><path style="opacity:1" fill="#595959" d="M 244.5,270.5 C 245.959,270.433 247.292,270.766 248.5,271.5C 250.031,272.925 249.698,273.591 247.5,273.5C 246.833,273.5 246.167,273.5 245.5,273.5C 244.89,272.609 244.557,271.609 244.5,270.5 Z"/></g>
<g><path style="opacity:1" fill="#808080" d="M 233.5,270.5 C 233.573,272.027 232.906,273.027 231.5,273.5C 231.427,271.973 232.094,270.973 233.5,270.5 Z"/></g>
<g><path style="opacity:1" fill="#999999" d="M 174.5,271.5 C 175.906,271.973 176.573,272.973 176.5,274.5C 175.094,274.027 174.427,273.027 174.5,271.5 Z"/></g>
<g><path style="opacity:1" fill="#6c6c6c" d="M 199.5,267.5 C 199.5,268.167 199.5,268.833 199.5,269.5C 198.566,270.568 198.232,271.901 198.5,273.5C 195.591,278.598 194.925,283.931 196.5,289.5C 196.591,291.698 195.925,292.031 194.5,290.5C 193.54,282.098 195.206,274.432 199.5,267.5 Z"/></g>
<g><path style="opacity:1" fill="#7f7f7f" d="M 250.5,270.5 C 251.833,272.833 251.833,275.167 250.5,277.5C 249.5,276.167 248.5,274.833 247.5,273.5C 249.698,273.591 250.031,272.925 248.5,271.5C 249.492,271.672 250.158,271.338 250.5,270.5 Z"/></g>
<g><path style="opacity:1" fill="#a7a7a7" d="M 190.5,266.5 C 192.743,268.838 193.076,271.504 191.5,274.5C 190.833,275.5 190.167,276.5 189.5,277.5C 190.114,273.865 190.448,270.198 190.5,266.5 Z"/></g>
<g><path style="opacity:1" fill="#959595" d="M 239.5,272.5 C 239.573,274.027 238.906,275.027 237.5,275.5C 237.427,273.973 238.094,272.973 239.5,272.5 Z"/></g>
<g><path style="opacity:1" fill="#7a7a7a" d="M 125.5,273.5 C 125.573,275.027 124.906,276.027 123.5,276.5C 123.5,276.167 123.5,275.833 123.5,275.5C 123.833,274.5 124.5,273.833 125.5,273.5 Z"/></g>
<g><path style="opacity:1" fill="#8a8a8a" d="M 231.5,273.5 C 231.573,275.027 230.906,276.027 229.5,276.5C 229.427,274.973 230.094,273.973 231.5,273.5 Z"/></g>
<g><path style="opacity:1" fill="#f9f9f9" d="M 129.5,275.5 C 131.437,276.59 133.27,277.924 135,279.5C 135.3,281.066 134.8,282.399 133.5,283.5C 132.952,285.532 131.619,286.532 129.5,286.5C 128.167,282.833 128.167,279.167 129.5,275.5 Z"/></g>
<g><path style="opacity:1" fill="#b4b4b4" d="M 142.5,276.5 C 145.764,278.094 148.431,280.427 150.5,283.5C 147.236,281.906 144.569,279.573 142.5,276.5 Z"/></g>
<g><path style="opacity:1" fill="#777777" d="M 178.5,277.5 C 179.906,277.973 180.573,278.973 180.5,280.5C 180.167,280.5 179.833,280.5 179.5,280.5C 178.89,279.609 178.557,278.609 178.5,277.5 Z"/></g>
<g><path style="opacity:1" fill="#adadad" d="M 129.5,275.5 C 128.167,279.167 128.167,282.833 129.5,286.5C 128.883,286.389 128.383,286.056 128,285.5C 127.333,282.5 127.333,279.5 128,276.5C 128.383,275.944 128.883,275.611 129.5,275.5 Z"/></g>
<g><path style="opacity:1" fill="#a9a9a9" d="M 256.5,278.5 C 256.833,278.5 257.167,278.5 257.5,278.5C 257.262,280.404 256.262,281.738 254.5,282.5C 254.733,280.938 255.4,279.605 256.5,278.5 Z"/></g>
<g><path style="opacity:1" fill="#c2c2c2" d="M 123.5,275.5 C 123.5,275.833 123.5,276.167 123.5,276.5C 123.5,276.833 123.5,277.167 123.5,277.5C 122.532,279.607 122.198,281.941 122.5,284.5C 121.366,282.034 121.199,279.367 122,276.5C 122.383,275.944 122.883,275.611 123.5,275.5 Z"/></g>
<g><path style="opacity:1" fill="#666666" d="M 138.5,281.5 C 140.404,281.738 141.738,282.738 142.5,284.5C 142.167,284.5 141.833,284.5 141.5,284.5C 141.167,284.5 140.833,284.5 140.5,284.5C 139.833,283.5 139.167,282.5 138.5,281.5 Z"/></g>
<g><path style="opacity:1" fill="#7c7c7c" d="M 229.5,276.5 C 228.647,280.02 226.647,282.687 223.5,284.5C 225.122,281.545 227.122,278.878 229.5,276.5 Z"/></g>
<g><path style="opacity:1" fill="#626262" d="M 237.5,275.5 C 237.286,277.144 237.62,278.644 238.5,280C 240.81,280.497 243.143,280.663 245.5,280.5C 243.285,282.574 240.785,282.907 238,281.5C 237.722,282.416 237.222,283.082 236.5,283.5C 236.5,282.5 236.5,281.5 236.5,280.5C 235.5,280.5 234.5,280.5 233.5,280.5C 234.834,278.804 236.168,277.138 237.5,275.5 Z"/></g>
<g><path style="opacity:1" fill="#939393" d="M 185.5,277.5 C 186.906,277.973 187.573,278.973 187.5,280.5C 187.813,284.042 187.479,287.375 186.5,290.5C 186.706,286.102 186.373,281.768 185.5,277.5 Z"/></g>
<g><path style="opacity:1" fill="#c9c9c9" d="M 198.5,273.5 C 198.643,275.262 198.309,276.929 197.5,278.5C 197.957,279.298 198.624,279.631 199.5,279.5C 198.061,281.588 197.394,283.921 197.5,286.5C 196.596,287.209 196.263,288.209 196.5,289.5C 194.925,283.931 195.591,278.598 198.5,273.5 Z"/></g>
<g><path style="opacity:1" fill="#6e6e6e" d="M 199.5,279.5 C 200.497,279.47 201.164,279.97 201.5,281C 201.046,283.03 200.38,284.863 199.5,286.5C 199.649,285.448 199.483,284.448 199,283.5C 198.768,284.737 198.268,285.737 197.5,286.5C 197.394,283.921 198.061,281.588 199.5,279.5 Z"/></g>
<g><path style="opacity:1" fill="#a6a6a6" d="M 213.5,284.5 C 213.649,283.448 213.483,282.448 213,281.5C 212.292,282.381 211.458,283.047 210.5,283.5C 210.694,281.088 212.027,280.088 214.5,280.5C 214.768,282.099 214.434,283.432 213.5,284.5 Z"/></g>
<g><path style="opacity:1" fill="#f9f9f9" d="M 140.5,284.5 C 140.833,284.5 141.167,284.5 141.5,284.5C 141.833,285.833 142.167,287.167 142.5,288.5C 140.544,290.148 138.211,290.815 135.5,290.5C 135.5,289.167 135.5,287.833 135.5,286.5C 135.5,286.167 135.5,285.833 135.5,285.5C 136.75,285.423 137.583,284.756 138,283.5C 138.671,284.252 139.504,284.586 140.5,284.5 Z"/></g>
<g><path style="opacity:1" fill="#c6c6c6" d="M 150.5,283.5 C 152.749,284.08 154.415,285.413 155.5,287.5C 155.167,287.5 154.833,287.5 154.5,287.5C 152.833,286.5 151.5,285.167 150.5,283.5 Z"/></g>
<g><path style="opacity:1" fill="#636363" d="M 173.5,282.5 C 173.833,283.167 174.167,283.833 174.5,284.5C 173.761,284.369 173.094,284.536 172.5,285C 173.823,285.816 174.489,286.983 174.5,288.5C 171.956,287.292 170.622,285.292 170.5,282.5C 171.5,282.5 172.5,282.5 173.5,282.5 Z"/></g>
<g><path style="opacity:1" fill="#7f7f7f" d="M 233.5,280.5 C 234.5,280.5 235.5,280.5 236.5,280.5C 236.5,281.5 236.5,282.5 236.5,283.5C 234.088,283.694 233.088,285.027 233.5,287.5C 235.5,287.5 237.5,287.5 239.5,287.5C 237.735,288.461 235.735,288.795 233.5,288.5C 232.395,287.4 231.062,286.733 229.5,286.5C 230.833,284.5 232.167,282.5 233.5,280.5 Z"/></g>
<g><path style="opacity:1" fill="#d5d5d5" d="M 129.5,275.5 C 130.251,274.427 131.251,274.26 132.5,275C 134.734,277.063 136.734,279.229 138.5,281.5C 139.167,282.5 139.833,283.5 140.5,284.5C 139.504,284.586 138.671,284.252 138,283.5C 137.583,284.756 136.75,285.423 135.5,285.5C 135.5,284.167 134.833,283.5 133.5,283.5C 134.8,282.399 135.3,281.066 135,279.5C 133.27,277.924 131.437,276.59 129.5,275.5 Z"/></g>
<g><path style="opacity:1" fill="#bababa" d="M 179.5,280.5 C 179.833,280.5 180.167,280.5 180.5,280.5C 181.01,283.388 180.344,285.721 178.5,287.5C 177.167,286.5 175.833,285.5 174.5,284.5C 174.167,283.833 173.833,283.167 173.5,282.5C 175.716,283.203 177.549,284.536 179,286.5C 179.495,284.527 179.662,282.527 179.5,280.5 Z"/></g>
<g><path style="opacity:1" fill="#676767" d="M 165.5,287.5 C 164.604,286.494 163.938,286.494 163.5,287.5C 162.833,287.167 162.167,286.833 161.5,286.5C 162.895,282.805 164.228,283.139 165.5,287.5 Z"/></g>
<g><path style="opacity:1" fill="#747474" d="M 180.5,280.5 C 181.473,282.948 181.806,285.615 181.5,288.5C 180.209,288.737 179.209,288.404 178.5,287.5C 180.344,285.721 181.01,283.388 180.5,280.5 Z"/></g>
<g><path style="opacity:1" fill="#606060" d="M 191.5,274.5 C 190.253,281.52 190.253,288.52 191.5,295.5C 190.833,295.167 190.167,294.833 189.5,294.5C 189.5,294.167 189.5,293.833 189.5,293.5C 188.31,288.523 188.31,283.523 189.5,278.5C 189.5,278.167 189.5,277.833 189.5,277.5C 190.167,276.5 190.833,275.5 191.5,274.5 Z"/></g>
<g><path style="opacity:1" fill="#a1a1a1" d="M 254.5,282.5 C 254.586,283.496 254.252,284.329 253.5,285C 251.685,285.757 250.019,286.59 248.5,287.5C 245.5,287.5 242.5,287.5 239.5,287.5C 244.838,287.187 249.838,285.521 254.5,282.5 Z"/></g>
<g><path style="opacity:1" fill="#6b6b6b" d="M 123.5,277.5 C 123.342,280.902 123.676,284.236 124.5,287.5C 124.167,287.5 123.833,287.5 123.5,287.5C 122.89,286.609 122.557,285.609 122.5,284.5C 122.198,281.941 122.532,279.607 123.5,277.5 Z"/></g>
<g><path style="opacity:1" fill="#7d7d7d" d="M 133.5,283.5 C 134.833,283.5 135.5,284.167 135.5,285.5C 135.5,285.833 135.5,286.167 135.5,286.5C 134.566,287.568 134.232,288.901 134.5,290.5C 133.732,289.737 133.232,288.737 133,287.5C 131.421,288.8 130.255,288.466 129.5,286.5C 131.619,286.532 132.952,285.532 133.5,283.5 Z"/></g>
<g><path style="opacity:1" fill="#b4b4b4" d="M 141.5,284.5 C 141.833,284.5 142.167,284.5 142.5,284.5C 143.686,285.961 143.686,287.295 142.5,288.5C 142.167,287.167 141.833,285.833 141.5,284.5 Z"/></g>
<g><path style="opacity:1" fill="#4f4f4f" d="M 213.5,284.5 C 213.5,285.167 213.5,285.833 213.5,286.5C 212.14,288.046 211.14,289.88 210.5,292C 210.836,293.03 211.503,293.53 212.5,293.5C 208.492,296.5 204.159,297.166 199.5,295.5C 202.167,295.5 204.833,295.5 207.5,295.5C 207.547,292.031 208.213,288.698 209.5,285.5C 209.328,284.508 209.662,283.842 210.5,283.5C 211.458,283.047 212.292,282.381 213,281.5C 213.483,282.448 213.649,283.448 213.5,284.5 Z"/></g>
<g><path style="opacity:1" fill="#606060" d="M 142.5,284.5 C 144.048,284.821 144.715,285.821 144.5,287.5C 146.179,287.285 147.179,287.952 147.5,289.5C 146.5,289.5 145.5,289.5 144.5,289.5C 144.5,290.5 144.5,291.5 144.5,292.5C 141.615,292.806 138.948,292.473 136.5,291.5C 138.5,291.5 140.5,291.5 142.5,291.5C 142.5,290.5 142.5,289.5 142.5,288.5C 143.686,287.295 143.686,285.961 142.5,284.5 Z"/></g>
<g><path style="opacity:1" fill="#919191" d="M 229.5,286.5 C 229.573,288.027 228.906,289.027 227.5,289.5C 227.427,287.973 228.094,286.973 229.5,286.5 Z"/></g>
<g><path style="opacity:1" fill="#8c8c8c" d="M 154.5,287.5 C 154.833,287.5 155.167,287.5 155.5,287.5C 156.5,287.833 157.167,288.5 157.5,289.5C 155.973,289.573 154.973,288.906 154.5,287.5 Z"/></g>
<g><path style="opacity:1" fill="#a6a6a6" d="M 161.5,286.5 C 162.167,286.833 162.833,287.167 163.5,287.5C 163.5,288.167 163.5,288.833 163.5,289.5C 162.094,289.027 161.427,288.027 161.5,286.5 Z"/></g>
<g><path style="opacity:1" fill="#747474" d="M 222.5,285.5 C 221.089,287.914 219.089,289.581 216.5,290.5C 216.5,290.167 216.5,289.833 216.5,289.5C 218.246,287.748 220.246,286.415 222.5,285.5 Z"/></g>
<g><path style="opacity:1" fill="#dddddd" d="M 239.5,287.5 C 242.5,287.5 245.5,287.5 248.5,287.5C 243.552,289.246 238.552,289.579 233.5,288.5C 235.735,288.795 237.735,288.461 239.5,287.5 Z"/></g>
<g><path style="opacity:1" fill="#a6a6a6" d="M 123.5,287.5 C 123.833,287.5 124.167,287.5 124.5,287.5C 125.11,288.391 125.443,289.391 125.5,290.5C 124.094,290.027 123.427,289.027 123.5,287.5 Z"/></g>
<g><path style="opacity:1" fill="#b1b1b1" d="M 174.5,288.5 C 177.349,289.92 178.016,291.92 176.5,294.5C 176.296,292.315 175.63,290.315 174.5,288.5 Z"/></g>
<g><path style="opacity:1" fill="#d3d3d3" d="M 213.5,286.5 C 213.5,287.5 213.5,288.5 213.5,289.5C 214.5,289.5 215.5,289.5 216.5,289.5C 216.5,289.833 216.5,290.167 216.5,290.5C 214.596,290.738 213.262,291.738 212.5,293.5C 211.503,293.53 210.836,293.03 210.5,292C 211.14,289.88 212.14,288.046 213.5,286.5 Z"/></g>
<g><path style="opacity:1" fill="#cbcbcb" d="M 135.5,286.5 C 135.5,287.833 135.5,289.167 135.5,290.5C 138.211,290.815 140.544,290.148 142.5,288.5C 142.5,289.5 142.5,290.5 142.5,291.5C 140.5,291.5 138.5,291.5 136.5,291.5C 135.508,291.672 134.842,291.338 134.5,290.5C 134.232,288.901 134.566,287.568 135.5,286.5 Z"/></g>
<g><path style="opacity:1" fill="#bebebe" d="M 125.5,290.5 C 126.833,291.167 127.833,292.167 128.5,293.5C 126.5,293.5 125.5,292.5 125.5,290.5 Z"/></g>
<g><path style="opacity:1" fill="#bababa" d="M 147.5,289.5 C 147.842,290.338 148.508,290.672 149.5,290.5C 148.448,292.256 146.781,292.923 144.5,292.5C 144.5,291.5 144.5,290.5 144.5,289.5C 145.5,289.5 146.5,289.5 147.5,289.5 Z"/></g>
<g><path style="opacity:1" fill="#bbbbbb" d="M 163.5,289.5 C 164.167,289.5 164.5,289.833 164.5,290.5C 164.289,292.424 163.623,292.757 162.5,291.5C 163.338,291.158 163.672,290.492 163.5,289.5 Z"/></g>
<g><path style="opacity:1" fill="#4b4b4b" d="M 165.5,287.5 C 167.664,289.822 169.331,292.489 170.5,295.5C 169.542,295.047 168.708,294.381 168,293.5C 166.479,296.046 164.979,296.046 163.5,293.5C 165.552,292.947 165.885,291.947 164.5,290.5C 164.5,289.833 164.167,289.5 163.5,289.5C 163.5,288.833 163.5,288.167 163.5,287.5C 163.938,286.494 164.604,286.494 165.5,287.5 Z"/></g>
<g><path style="opacity:1" fill="#535353" d="M 199.5,286.5 C 199.5,288.5 199.5,290.5 199.5,292.5C 198.662,292.842 198.328,293.508 198.5,294.5C 196.167,294.167 194.833,292.833 194.5,290.5C 195.925,292.031 196.591,291.698 196.5,289.5C 196.263,288.209 196.596,287.209 197.5,286.5C 198.268,285.737 198.768,284.737 199,283.5C 199.483,284.448 199.649,285.448 199.5,286.5 Z"/></g>
<g><path style="opacity:1" fill="#6e6e6e" d="M 149.5,290.5 C 150.404,291.209 150.737,292.209 150.5,293.5C 148.265,293.795 146.265,293.461 144.5,292.5C 146.781,292.923 148.448,292.256 149.5,290.5 Z"/></g>
<g><path style="opacity:1" fill="#797979" d="M 164.5,290.5 C 165.885,291.947 165.552,292.947 163.5,293.5C 161.973,293.573 160.973,292.906 160.5,291.5C 161.167,291.5 161.833,291.5 162.5,291.5C 163.623,292.757 164.289,292.424 164.5,290.5 Z"/></g>
<g><path style="opacity:1" fill="#cfcfcf" d="M 189.5,278.5 C 188.31,283.523 188.31,288.523 189.5,293.5C 187.57,293.771 186.236,294.771 185.5,296.5C 185.5,295.5 185.5,294.5 185.5,293.5C 186.11,292.609 186.443,291.609 186.5,290.5C 187.479,287.375 187.813,284.042 187.5,280.5C 188.167,279.833 188.833,279.167 189.5,278.5 Z"/></g>
<g><path style="opacity:1" fill="#b4b4b4" d="M 226.5,290.5 C 225.415,292.587 223.749,293.92 221.5,294.5C 222.585,292.413 224.251,291.08 226.5,290.5 Z"/></g>
<g><path style="opacity:1" fill="#a5a5a5" d="M 209.5,285.5 C 208.213,288.698 207.547,292.031 207.5,295.5C 204.833,295.5 202.167,295.5 199.5,295.5C 198.833,295.5 198.5,295.167 198.5,294.5C 198.328,293.508 198.662,292.842 199.5,292.5C 201.279,294.344 203.612,295.01 206.5,294.5C 205.925,290.845 206.925,287.845 209.5,285.5 Z"/></g>
<g><path style="opacity:1" fill="#939393" d="M 185.5,293.5 C 185.5,294.5 185.5,295.5 185.5,296.5C 184.395,297.6 183.062,298.267 181.5,298.5C 182.864,296.809 184.197,295.142 185.5,293.5 Z"/></g>
<g><path style="opacity:1" fill="#c1c1c1" d="M 189.5,294.5 C 190.167,294.833 190.833,295.167 191.5,295.5C 191.5,296.167 191.5,296.833 191.5,297.5C 190.094,297.027 189.427,296.027 189.5,294.5 Z"/></g>
<g><path style="opacity:1" fill="#a1a1a1" d="M 221.5,294.5 C 218.986,297.644 215.653,299.644 211.5,300.5C 214.546,298.142 217.879,296.142 221.5,294.5 Z"/></g>
<g><path style="opacity:1" fill="#858585" d="M 193.5,298.5 C 195.544,299.508 197.544,300.508 199.5,301.5C 198.833,301.5 198.167,301.5 197.5,301.5C 195.596,301.262 194.262,300.262 193.5,298.5 Z"/></g>
<g><path style="opacity:1" fill="#6b6b6b" d="M 181.5,298.5 C 180.089,300.539 178.089,301.539 175.5,301.5C 172.287,301.81 169.287,301.477 166.5,300.5C 171.692,300.909 176.692,300.242 181.5,298.5 Z"/></g>
<g><path style="opacity:1" fill="#b5b5b5" d="M 132.5,296.5 C 141.475,297.216 150.475,297.716 159.5,298C 161.9,298.744 164.233,299.577 166.5,300.5C 169.287,301.477 172.287,301.81 175.5,301.5C 170.709,303.054 166.043,302.554 161.5,300C 153.167,299.667 144.833,299.333 136.5,299C 134.934,298.392 133.6,297.558 132.5,296.5 Z"/></g>
<g><path style="opacity:1" fill="#bfbfbf" d="M 211.5,300.5 C 211.389,301.117 211.056,301.617 210.5,302C 205.98,302.814 201.646,302.647 197.5,301.5C 198.167,301.5 198.833,301.5 199.5,301.5C 203.566,301.693 207.566,301.36 211.5,300.5 Z"/></g>
</svg>
