<?xml version="1.0" standalone="no"?>
<!DOCTYPE svg PUBLIC "-//W3C//DTD SVG 20010904//EN"
 "http://www.w3.org/TR/2001/REC-SVG-20010904/DTD/svg10.dtd">
<svg version="1.0" xmlns="http://www.w3.org/2000/svg"
 width="1280.000000pt" height="1143.000000pt" viewBox="0 0 1280.000000 1143.000000"
 preserveAspectRatio="xMidYMid meet">
<metadata>
Created by potrace 1.15, written by Peter Selinger 2001-2017
</metadata>
<g transform="translate(0.000000,1143.000000) scale(0.100000,-0.100000)"
fill="#e91e63" stroke="none">
<path d="M3047 11125 c-684 -86 -1268 -379 -1757 -881 -403 -414 -699 -938
-880 -1558 -107 -367 -165 -680 -201 -1076 -18 -198 -15 -659 5 -825 113 -931
561 -1675 1426 -2370 369 -296 671 -497 1520 -1010 532 -322 788 -492 1090
-721 859 -653 1650 -1518 1955 -2141 42 -84 72 -134 84 -138 11 -3 26 -17 35
-30 18 -28 75 -47 116 -38 40 7 63 37 90 113 72 207 298 549 580 880 341 401
814 869 1220 1211 459 385 724 572 1470 1039 996 623 1365 894 1770 1300 546
547 845 1097 970 1786 35 190 50 378 50 621 1 1380 -500 2549 -1375 3210 -438
331 -923 523 -1475 584 -135 15 -435 15 -570 0 -1127 -124 -2073 -808 -2688
-1944 l-80 -148 -63 118 c-322 606 -693 1057 -1154 1404 -437 327 -887 518
-1425 604 -143 23 -564 29 -713 10z"/>
</g>
</svg>
